<?xml version="1.0" encoding="UTF-8" standalone="no"?>
<!-- Created with Inkscape (http://www.inkscape.org/) -->

<svg
   xmlns:osb="http://www.openswatchbook.org/uri/2009/osb"
   xmlns:dc="http://purl.org/dc/elements/1.1/"
   xmlns:cc="http://creativecommons.org/ns#"
   xmlns:rdf="http://www.w3.org/1999/02/22-rdf-syntax-ns#"
   xmlns:svg="http://www.w3.org/2000/svg"
   xmlns="http://www.w3.org/2000/svg"
   xmlns:xlink="http://www.w3.org/1999/xlink"
   xmlns:sodipodi="http://sodipodi.sourceforge.net/DTD/sodipodi-0.dtd"
   xmlns:inkscape="http://www.inkscape.org/namespaces/inkscape"
   width="12211.566"
   height="3193.625"
   id="svg2"
   version="1.1"
   inkscape:version="0.48.5 r10040"
   sodipodi:docname="ultimate-wtf.svg">
  <defs
     id="defs4">
    <linearGradient
       id="linearGradient3993"
       osb:paint="solid">
      <stop
         style="stop-color:#000000;stop-opacity:1;"
         offset="0"
         id="stop3995" />
    </linearGradient>
    <linearGradient
       id="linearGradient3987"
       osb:paint="solid">
      <stop
         style="stop-color:#000000;stop-opacity:1;"
         offset="0"
         id="stop3989" />
    </linearGradient>
  </defs>
  <sodipodi:namedview
     id="base"
     pagecolor="#ffffff"
     bordercolor="#666666"
     borderopacity="1.0"
     inkscape:pageopacity="0.0"
     inkscape:pageshadow="2"
     inkscape:zoom="0.080708475"
     inkscape:cx="4593.6457"
     inkscape:cy="1282.3602"
     inkscape:document-units="px"
     inkscape:current-layer="g4013"
     showgrid="false"
     inkscape:window-width="1920"
     inkscape:window-height="1034"
     inkscape:window-x="0"
     inkscape:window-y="0"
     inkscape:window-maximized="1"
     inkscape:snap-grids="true"
     fit-margin-top="0"
     fit-margin-left="0"
     fit-margin-right="0"
     fit-margin-bottom="0"
     inkscape:snap-bbox="true"
     inkscape:object-paths="false"
     width="10000px"
     inkscape:snap-intersection-paths="false" />
  <metadata
     id="metadata7">
    <rdf:RDF>
      <cc:Work
         rdf:about="">
        <dc:format>image/svg+xml</dc:format>
        <dc:type
           rdf:resource="http://purl.org/dc/dcmitype/StillImage" />
        <dc:title></dc:title>
      </cc:Work>
    </rdf:RDF>
  </metadata>
  <g
     inkscape:label="Layer 1"
     inkscape:groupmode="layer"
     id="layer1"
     transform="translate(-97.112952,4281.4685)">
    <g
       id="g3182">
      <g
         id="g4013"
         transform="translate(3902.5478,53.679951)">
        <g
           id="g4103"
           transform="matrix(0.86218546,-0.2310219,0.2310219,0.86218546,81.995067,-1058.608)">
          <g
             id="g3834"
             transform="translate(152.91964,61.276938)">
            <path
               transform="matrix(1.0821485,0.28996082,-0.28996082,1.0821485,-3436.2442,-4633.1699)"
               id="path3783"
               d="m 270.59375,1155.0625 c -0.15216,0.4913 -0.31714,0.9773 -0.46875,1.4687 l 699.75,-186.6562 -211.40625,791.75 582.87505,578.5312 1488.9374,-398 c 0.1128,-0.3661 0.2316,-0.7275 0.3438,-1.0937 L 2131.0312,2126.75 2531.875,639.5 c -0.1851,-0.19916 -0.377,-0.3946 -0.5625,-0.59375 L 2342.4688,1337.6562 1251.25,244.9375 c -1.78,0.40866 -3.5639,0.83638 -5.3438,1.25 l 511.375,512.6875 -1486.68745,396.1875 z"
               style="fill:#80c8b5;fill-opacity:1;fill-rule:evenodd;stroke:#332f3e;stroke-width:0;stroke-linecap:round;stroke-linejoin:miter;stroke-miterlimit:4;stroke-opacity:1;stroke-dasharray:none;stroke-dashoffset:0"
               inkscape:connector-curvature="0" />
            <path
               style="fill:#ff3100;fill-opacity:1;fill-rule:evenodd;stroke:#332f3e;stroke-width:43.83379364;stroke-linecap:round;stroke-linejoin:miter;stroke-miterlimit:4;stroke-opacity:1;stroke-dashoffset:0"
               inkscape:transform-center-x="30.73137"
               inkscape:transform-center-y="-53.228127"
               d="m -1758.8329,-1727.7836 -899.0488,0 -449.5254,-778.6005 449.5254,-778.5986 899.0489,0 449.526,778.5986 z"
               id="path3007"
               inkscape:connector-curvature="0" />
            <path
               inkscape:connector-curvature="0"
               style="fill:#76d6ff;fill-opacity:1;fill-rule:evenodd;stroke:#332f3e;stroke-width:22.40645218;stroke-linecap:round;stroke-linejoin:miter;stroke-miterlimit:4;stroke-opacity:1;stroke-dasharray:none;stroke-dashoffset:0"
               d="m -2153.2283,-4005.2802 863.9968,1498.8797 407.00486,-701.4035 c -243.65986,-459.7364 -719.31466,-777.5325 -1271.00166,-797.4762 z"
               id="path3011" />
            <path
               inkscape:connector-curvature="0"
               style="fill:#0bb5ff;fill-opacity:1;fill-rule:evenodd;stroke:#332f3e;stroke-width:22.40645218;stroke-linecap:round;stroke-linejoin:miter;stroke-miterlimit:4;stroke-opacity:1;stroke-dasharray:none;stroke-dashoffset:0"
               d="m -881.80174,-3206.9928 -865.03976,1493.2012 810.91936,1.8928 c 144.1598,-230.391 227.5688,-502.6906 227.5688,-794.5017 0,-253.0729 -62.7767,-491.4692 -173.4484,-700.5923 z"
               id="path3149" />
            <path
               inkscape:connector-curvature="0"
               style="fill:#76d6ff;fill-opacity:1;fill-rule:evenodd;stroke:#332f3e;stroke-width:22.40645218;stroke-linecap:round;stroke-linejoin:miter;stroke-miterlimit:4;stroke-opacity:1;stroke-dasharray:none;stroke-dashoffset:0"
               d="m -936.61764,-1710.8171 -1732.12706,-1.0044 414.615,704.6485 c 15.2118,0.4561 30.454,0.7726 45.7764,0.7726 536.1522,0 1006.5143,-281.3566 1271.73566,-704.4167 z"
               id="path3174" />
            <path
               inkscape:connector-curvature="0"
               style="fill:#0bb5ff;fill-opacity:1;fill-rule:evenodd;stroke:#332f3e;stroke-width:22.40645218;stroke-linecap:round;stroke-linejoin:miter;stroke-miterlimit:4;stroke-opacity:1;stroke-dasharray:none;stroke-dashoffset:0"
               d="m -2663.2593,-1711.8215 -463.4819,-795.8537 -406.155,705.8074 c 245.5491,460.6214 724.3564,778.0669 1278.7665,794.6948 l -415.6299,-715.0821 z"
               id="path3177"
               sodipodi:nodetypes="cccccc" />
            <path
               inkscape:connector-curvature="0"
               style="fill:#76d6ff;fill-opacity:1;fill-rule:evenodd;stroke:#332f3e;stroke-width:22.40645218;stroke-linecap:round;stroke-linejoin:miter;stroke-miterlimit:4;stroke-opacity:1;stroke-dasharray:none;stroke-dashoffset:0"
               d="m -3126.2776,-2506.9027 458.3441,-795.5059 -811.3444,-0.8886 c -145.0841,230.8983 -229.0755,504.0726 -229.0755,796.8967 0,254.6617 63.4812,494.4787 175.4572,704.5327 l 406.155,-705.8074 0.4636,0.7725 z"
               id="path3180" />
            <path
               transform="matrix(1.0821485,0.28996082,-0.28996082,1.0821485,-3436.2442,-4633.1699)"
               id="path3152"
               d="M 270.59375,1155.0625 1757.2812,758.875 1245.9062,246.1875 c -14.1546,3.28943 -28.2937,6.74144 -42.4374,10.53125 C 742.21613,380.31102 402.15551,730.2919 270.59375,1155.0625 z"
               style="fill:#0bb5ff;fill-opacity:1;fill-rule:evenodd;stroke:#332f3e;stroke-width:20;stroke-linecap:round;stroke-linejoin:miter;stroke-miterlimit:4;stroke-opacity:1;stroke-dasharray:none;stroke-dashoffset:0"
               inkscape:connector-curvature="0" />
          </g>
          <path
             style="fill:#332f3e;fill-opacity:1;fill-rule:evenodd;stroke:#332f3e;stroke-width:20.63089371;stroke-linecap:round;stroke-linejoin:miter;stroke-miterlimit:4;stroke-opacity:1;stroke-dashoffset:0"
             d="m -1606.6507,-4112.3588 c -5.7933,-1.5555 -11.5831,-3.0931 -17.4002,-4.5898 -137.8868,-35.4767 -282.4394,-54.3389 -431.3997,-54.339 -953.3453,10e-5 -1726.175,772.8241 -1726.1749,1726.1696 0,953.3454 772.858,1726.18394 1726.2033,1726.18394 953.3454,0 1726.17493,-772.82414 1726.17493,-1726.16954 0,-798.1009 -541.66637,-1469.6909 -1277.40343,-1667.2552 z m -57.591,207.2223 c 806.35216,216.0614 1284.87104,1044.8805 1068.80964,1851.2327 -216.0615,806.3523 -1044.88954,1284.90494 -1851.24174,1068.84344 -806.3522,-216.06134 -1284.8621,-1044.91424 -1068.8006,-1851.26644 216.0614,-806.3523 1044.8804,-1284.8712 1851.2327,-1068.8097 z"
             id="path4011"
             inkscape:connector-curvature="0" />
        </g>
        <g
           id="g3021"
           transform="translate(-3023.1779,-2040.2734)">
          <path
             transform="translate(0.0129776,-2.4127608e-5)"
             d="m 5719.9688,-2284.875 c -85,0 -168.5343,26.6855 -243.4376,73.3438 -71.9001,44.7929 -137.7123,104.6055 -198.6562,177.4062 l -0.031,-0.031 c -0.1807,0.2129 -0.3507,0.443 -0.5313,0.6562 -60.0035,70.8159 -115.9329,152.6716 -168.5,245.375 -0.095,0.1651 -0.1867,0.3348 -0.2813,0.5 -49.1993,85.9049 -94.8874,177.7457 -137.2812,275.3438 -40.3922,-51.6948 -89.6318,-98.7809 -146.4688,-141.5938 -0.07,-0.055 -0.1484,-0.1017 -0.2187,-0.1562 -0.4476,-0.337 -0.864,-0.6949 -1.3125,-1.0313 l -0.031,0.031 c -73.0352,-56.4657 -157.0285,-106.1541 -251.5938,-149.875 -0.3106,-0.1468 -0.6268,-0.291 -0.9375,-0.4376 -94.8062,-44.7284 -196.2132,-82.4194 -304,-113.2187 -107.7019,-30.7688 -219.6191,-54.2303 -335.6563,-70.5625 l 0,-0.031 c -0.3226,-0.048 -0.6461,-0.077 -0.9687,-0.125 -116.5714,-17.3331 -232.8916,-26.0599 -348.7813,-26.0626 -99.9347,0 -197.7057,6.6982 -293.1874,20.1876 -96.2358,13.6012 -188.5286,35.1548 -276.5313,64.7812 -0.2731,0.09 -0.5395,0.1912 -0.8125,0.2812 -87.7311,28.9559 -170.0017,66.7607 -246.0625,113.4376 -0.1309,0.08 -0.2754,0.1383 -0.4063,0.2187 l 0.031,0.031 c -77.3981,47.1718 -145.3619,105.8562 -202.1875,174.8124 l -0.031,-0.031 c -0.3218,0.3785 -0.6166,0.7771 -0.9376,1.1562 -0.122,0.1487 -0.253,0.2888 -0.375,0.4376 -58.4801,69.1984 -103.8574,148.9228 -135.375,236.7187 -32.6045,90.8301 -47.8746,190.4662 -47.875,297.2813 2e-4,57.7934 3.7244,106.82226 25.8438,157.62495 22.1194,50.80269 89.2388,107.18997 155.4375,107.1875 103.0849,0.005 152.2577,-60.10909 209.9687,-126.875 57.4744,-66.48775 115.2714,-155.61485 179.0626,-270.65625 18.6154,-23.2401 48.0786,-47.8395 93,-71.4062 a 116.84021,116.84021 0 0 0 0.5937,-0.3438 c 8.2634,-4.398 16.8687,-8.6553 25.5937,-12.8438 -60.0932,102.9526 -109.7545,215.2293 -149.0624,336.31255 -0.024,0.0725 -0.039,0.14624 -0.063,0.21875 -49.8767,152.72642 -87.8448,313.11724 -114.125,480.90625 -26.0365,166.23299 -43.5724,336.25392 -52.5624,510.0625 a 116.84021,116.84021 0 0 0 -0.031,0.65625 c -7.8908,171.62538 -11.8439,339.45158 -11.8437,503.4375 -2e-4,57.84716 23.8516,131.1515 82.7812,170.4375 a 116.84021,116.84021 0 0 0 2.0938,1.34375 c 31.0504,19.75958 65.2707,34.18707 101.0624,43.78125 63.0663,22.86863 129.4969,44.12463 199.5,63.84375 72.1413,20.32158 145.3012,37.62753 219.4063,51.875 0.4076,0.0784 0.8111,0.17181 1.2187,0.25 74.5798,15.08154 148.3852,26.71585 221.375,34.875 0.5369,0.0671 1.0572,0.12086 1.5938,0.1875 74.0233,9.19288 145.2152,13.90611 213.5938,13.90625 108.815,-1.4e-4 210.9227,-12.09516 305.8124,-37.34375 0.1556,-0.0414 0.3133,-0.0835 0.4688,-0.125 0.2513,-0.0644 0.4988,-0.12296 0.75,-0.1875 l 0,-0.0312 c 92.1392,-23.67369 176.7723,-56.91802 252.9062,-100.5 l 0,0.0312 c 0.2126,-0.12015 0.4126,-0.25472 0.625,-0.375 75.76,-42.89339 143.2067,-93.85525 201.0626,-152.84375 a 116.84021,116.84021 0 0 0 0.7812,-0.8125 c 56.0724,-58.27322 103.7088,-121.36834 142,-188.9375 22.2305,-39.2324 41.2252,-79.70909 57.0938,-121.21875 14.8838,52.1135 31.9634,101.29131 51.5624,147.40625 a 116.84021,116.84021 0 0 0 0.5,1.125 c 38.275,87.48656 84.2315,161.93634 141.3438,221.53125 a 116.84021,116.84021 0 0 0 1.7188,1.78125 c 61.7312,61.73186 143.9703,103.0625 230.5937,103.0625 43.5203,0 87.8902,-5.72721 133.2187,-16.1875 a 116.84021,116.84021 0 0 0 2.75,-0.6875 c 43.0797,-11.04623 86.59,-25.2221 130.625,-42.40625 43.4015,-16.9374 86.2059,-35.96264 128.4063,-57.0625 a 116.84021,116.84021 0 0 0 1,-0.53125 c 41.0583,-21.03021 80.7408,-42.10715 119,-63.25 a 116.84021,116.84021 0 0 0 1.7187,-0.96875 c 7.0288,-4.03957 13.9933,-8.31317 21,-12.4375 51.5135,54.03687 112.8138,98.48567 181.75,131.96875 a 116.84021,116.84021 0 0 0 0.5626,0.28125 c 87.4388,41.87249 186.2665,61.28125 292.1562,61.28125 67.0151,0 133.3853,-7.29452 198.4375,-21.875 a 116.84021,116.84021 0 0 0 1.4063,-0.3125 c 63.2288,-15.00366 124.1724,-34.43634 182.625,-58.25 a 116.84021,116.84021 0 0 0 0.9687,-0.40625 c 58.1034,-24.29815 113.4565,-51.92123 165.9063,-82.90625 l 0,0.0312 c 0.298,-0.17289 0.5771,-0.35831 0.875,-0.53125 9.2512,-5.37127 18.301,-10.79929 27.3437,-16.21875 2.116,5.48757 4.3216,10.92505 6.6563,16.3125 a 116.84021,116.84021 0 0 0 1.9687,4.34375 c 21.3921,44.31292 53.9292,83.95686 94.0937,112.875 a 116.84021,116.84021 0 0 0 2.5626,1.78125 c 48.9741,33.3028 106.1811,45.15625 162.375,45.15625 49.9181,0 101.1847,-12.29884 145.0624,-38.625 52.45,-31.4705 84.754,-77.98462 110.125,-129.65625 l 0.031,0 0.6563,-1.34375 147.6874,-293.0625 c 6.9071,108.70356 25.4117,200.72415 61.6876,279.15625 a 116.84021,116.84021 0 0 0 0.75,1.625 c 23.33,48.5033 51.5292,91.18978 91.5624,125.1875 40.0333,33.99772 95.1482,56.71875 149.9688,56.71875 64.3251,0 127.2465,-8.86813 187.375,-26.90625 a 116.84021,116.84021 0 0 0 2.0312,-0.625 c 55.0709,-17.62311 108.1892,-39.73934 159.0626,-66.28125 a 116.84021,116.84021 0 0 0 1.75,-0.9375 c 20.5899,-11.19048 40.7266,-23.08868 60.5937,-35.40625 28.0873,27.85056 59.318,52.36714 93.375,72.65625 a 116.84021,116.84021 0 0 0 0.9063,0.53125 c 66.6861,38.90058 144.1348,56.96875 224.4062,56.96875 56.7601,0 113.2698,-8.75425 168,-25.78125 a 116.84021,116.84021 0 0 0 1.5,-0.5 c 51.5944,-16.82442 101.8716,-38.62293 150.5938,-65.125 l 0,0.0312 c 0.2301,-0.12275 0.4574,-0.25206 0.6874,-0.375 0.095,-0.0505 0.1868,-0.10571 0.2813,-0.15625 49.6193,-26.53683 96.9913,-57.44502 141.9063,-92.5 a 116.84021,116.84021 0 0 0 0.3124,-0.21875 c 4.2685,-3.35382 8.4028,-6.80146 12.625,-10.1875 8.4933,11.20311 17.338,22.05267 26.7188,32.3125 a 116.84021,116.84021 0 0 0 1.2188,1.3125 c 37.9273,40.22754 77.4071,73.78374 120.5624,99.40625 a 116.84021,116.84021 0 0 0 3.7188,2.09375 c 39.2086,21.38732 77.8291,37.58747 118.5,46.625 a 116.84021,116.84021 0 0 0 0.875,0.21875 c 31.2513,6.69705 55.6519,11.375 85.9688,11.375 36.875,0 73.5547,-5.8324 110.1874,-15.9375 a 116.84021,116.84021 0 0 0 2.5,-0.71875 c 33.5051,-10.052 67.1616,-22.19842 100.9688,-36.375 a 116.84021,116.84021 0 0 0 2.9062,-1.28125 c 32.6902,-14.76392 65.6775,-30.98572 99,-48.6875 a 116.84021,116.84021 0 0 0 2.4688,-1.375 c 27.9104,-15.70028 54.582,-31.48074 80.4688,-47.3125 2.9095,3.24958 5.8126,6.48504 8.8124,9.65625 a 116.84021,116.84021 0 0 0 1.0938,1.15625 c 44.0863,45.34623 96.0847,81.81217 153.5312,107.34375 a 116.84021,116.84021 0 0 0 2.8438,1.21875 c 58.1713,24.02746 120.0026,36.71875 182.313,36.71875 56.918,0 113.726,-9.62803 168.75,-27.96875 50.865,-16.95513 99.738,-38.55127 146.218,-64.625 a 116.84021,116.84021 0 0 0 0.813,-0.46875 c 38.494,-21.99689 74.607,-46.27299 108.469,-72.59375 18.788,27.55996 39.427,52.76323 62.437,75.25 a 116.84021,116.84021 0 0 0 1,0.9375 c 64.084,61.17185 152.574,93.84374 241.781,93.84375 72.8,-10e-6 145.053,-18.32883 212.625,-51.5 61.626,-30.25316 119.487,-67.34643 173.063,-110.875 a 116.84021,116.84021 0 0 0 0.03,-0.0312 c 51.072,-41.49765 97.407,-85.56211 138.813,-132.28125 0.332,-0.37497 0.668,-0.74969 1,-1.125 39.613,-43.7339 72.128,-82.82113 98.156,-119.03125 a 116.84021,116.84021 0 0 0 19.312,-92.875 l -70.312,-325.21875 a 116.84021,116.84021 0 0 0 -208.313,-44.53125 c -46.707,63.521647 -92.508,119.929671 -137.156,169.15625 -0.08,0.09083 -0.168,0.190468 -0.25,0.28125 -17.919,19.607284 -37.309,38.976793 -58.187,58.125 -0.06,0.0506 -0.102,0.10565 -0.157,0.15625 -19.098,17.42476 -38.254,32.88041 -57.437,46.46875 a 116.84021,116.84021 0 0 0 -1.906,1.40625 c -3.838,2.83636 -7.609,5.45812 -11.344,8 -0.02,-1.72804 -0.125,-3.12848 -0.125,-4.90625 -10e-4,-46.61787 4.232,-96.949908 13.093,-151 a 116.84021,116.84021 0 0 0 0.06,-0.3125 c 9.556,-59.251756 20.043,-117.986714 31.5,-176.21875 a 116.84021,116.84021 0 0 0 0.06,-0.375 c 11.86,-61.28389 22.746,-120.65388 32.656,-178.125 a 116.84021,116.84021 0 0 0 0.06,-0.3125 c 10.634,-62.74621 16.312,-121.24924 16.313,-176.25 -10e-4,-35.83066 -2.402,-68.4971 -13.063,-103.0625 -0.521,-1.87727 -1.148,-3.76911 -1.718,-5.65625 -9.005,-29.79765 -24.133,-60.62501 -50.188,-86.6875 a 116.84021,116.84021 0 0 0 -0.03,-0.0312 c -23.551,-23.54453 -56.057,-42.41264 -90,-50.25 a 116.84021,116.84021 0 0 0 -0.03,0 c -22.233,-5.12766 -44.789,-7.40427 -67.282,-7.40625 -12.191,0.001 -24.516,0.57474 -36.937,1.46875 -9.65,9.3e-4 -19.32,0.001 -28.969,0 -6.035,6.1e-4 -12.094,-0.17671 -18.156,-0.46875 -5.221,-6.87927 -10.574,-13.73548 -16.125,-20.59375 -15.996,-22.37574 -35.901,-41.36857 -57.438,-56.28125 -39.151,-27.09883 -81.509,-33.9664 -119.219,-33.96875 -84.039,0.002 -167.35,18.64799 -246.218,53.84375 l 0,-0.0312 c -0.23,0.10114 -0.458,0.21114 -0.688,0.3125 -0.02,0.01 -0.04,0.0217 -0.06,0.0312 -74.863,32.98527 -145.589,77.56441 -211.625,132.59375 -65.7978,54.83236 -126.0845,118.51897 -180.7815,190.375 a 116.84021,116.84021 0 0 0 -0.6563,0.875 c -53.117,71.17752 -99.3437,147.21882 -138.5624,227.6875 l -0.031,0 c -0.091,0.18433 -0.1592,0.37815 -0.25,0.5625 -39.3171,79.78654 -70.3663,162.12986 -92.8437,246.6875 -6.7706,25.4704771 -12.4317,50.822743 -17.2188,76.09375 -1.5697,1.150818 -3.2217,2.457664 -4.7812,3.59375 -0.07,0.05105 -0.1487,0.105231 -0.2188,0.15625 -21.8309,15.458778 -44.6639,31.012241 -68.4688,46.59375 -0.1226,0.0803 -0.2523,0.13847 -0.375,0.21875 -21.5033,13.74691 -42.7541,26.0656 -63.7812,37 -19.2862,10.02852 -36.9242,17.67891 -52.7812,23.3125 -2.249,-8.01721 -4.2798,-17.05231 -5.9376,-27.25 -2.2226,-19.92347 -3.4385,-41.629849 -3.4374,-65.25 -0,-17.444227 1.1159,-35.528683 3.4687,-54.34375 a 116.84021,116.84021 0 0 0 0.062,-0.59375 c 2.6256,-21.889153 5.6601,-42.657484 9.0625,-62.40625 4.4646,-21.319921 8.8859,-40.734614 13.1875,-57.9375 3.9841,-15.93951 7.7459,-28.38617 10.7812,-37.09375 49.646,-120.14823 100.6106,-235.93401 152.9688,-347.3125 54.7423,-116.45358 105.5574,-233.96454 152.375,-352.5 47.3945,-120.00162 88.6937,-242.94645 123.9375,-368.81245 a 116.84021,116.84021 0 0 0 0.062,-0.2188 c 36.1876,-130.2803 60.8088,-267.615 74.0938,-411.6875 a 116.84021,116.84021 0 0 0 0.094,-1.2813 c 3.1653,-39.0599 4.8106,-77.3637 4.8125,-114.9062 -0,-61.6933 -4.8781,-121.8871 -14.7812,-180.3438 -0.019,-0.1157 -0.043,-0.228 -0.063,-0.3437 -10.2471,-61.2878 -27.7294,-118.0917 -54.1562,-169.3437 l 0.031,0 c -0.1757,-0.3604 -0.3856,-0.7028 -0.5624,-1.0626 -0.3467,-0.668 -0.6504,-1.365 -1,-2.0312 l -0.031,0.031 c -26.2793,-52.7442 -63.561,-99.3754 -110.5313,-134.0312 l 0.031,-0.031 c -0.3879,-0.2938 -0.7982,-0.5522 -1.1875,-0.8438 -0.2156,-0.1576 -0.409,-0.3429 -0.625,-0.5 l -0.031,0.031 c -53.2096,-39.6057 -120.011,-59.0272 -185.875,-59.0312 -86.4044,0 -171.0592,28.2587 -245.3438,77.5 -0.3718,0.2464 -0.7538,0.4713 -1.125,0.7188 l 0.031,0.031 c -71.7343,46.846 -135.938,109.7519 -193.9062,186.3125 -57.6722,76.1721 -109.3945,164.3002 -156.1875,264.125 a 116.84021,116.84021 0 0 0 -0.4375,0.9063 c -45.5942,99.4783 -85.0726,206.8489 -118.7188,322.0624 -33.7001,115.3961 -60.5987,236.4029 -80.8437,362.9376 -15.2506,95.31315 -25.6159,191.46753 -31.1563,288.4062 -48.7832,10.48602 -96.1475,25.12532 -141.6874,44.15625 a 116.84021,116.84021 0 0 0 -0.031,0 c -73.7908,30.83913 -142.6597,70.19652 -205.875,117.75 l 0,-0.0312 c -0.2987,0.22012 -0.5766,0.46705 -0.875,0.6875 -0.048,0.0365 -0.1079,0.0573 -0.1563,0.0937 -62.7546,46.37387 -119.199,100.13151 -168.7812,160.59375 -0.2252,0.27463 -0.4626,0.53759 -0.6875,0.8125 -49.0004,58.91779 -91.2189,122.46964 -126.2187,190.28125 a 116.84021,116.84021 0 0 0 -0.3438,0.65625 c -34.0745,67.05059 -60.5695,137.16704 -79.2812,209.8125 a 116.84021,116.84021 0 0 0 -0.3126,1.21875 c -17.7524,72.11939 -26.8437,144.671 -26.8437,216.90625 0,1.54642 0.085,3.05133 0.094,4.59375 -2.6153,1.77721 -5.2838,3.8044 -7.875,5.5 -6.782,4.306 -13.0894,7.91344 -19.3124,11.4375 -3.4649,-19.66708 -5.8131,-44.43449 -5.8126,-74.25 -0,-31.42638 1.7137,-67.008618 5.25,-106.375 4.6779,-41.063332 10.2363,-82.618987 16.7813,-124.6875 6.6233,-42.58533 13.7111,-84.15897 21.25,-124.71875 8.7184,-41.69689 16.548,-80.29664 23.4063,-115.5625 a 116.84021,116.84021 0 0 0 0,-0.0312 c 6.8236,-35.09839 12.2774,-65.65548 16.4687,-92.59375 5.2999,-27.53731 9.1216,-46.9331 9.125,-74.71875 -0,-87.38027 -17.3219,-169.14697 -64.6563,-236.28125 -0.088,-0.12813 -0.1924,-0.24703 -0.2812,-0.375 -0.2694,-0.38079 -0.51,-0.77641 -0.7812,-1.15625 l -0.031,0.0312 c -46.3718,-65.99996 -129.8188,-110.49766 -210.75,-110.5 -64.379,0.002 -127.6445,13.37671 -184.5313,41.125 -66.5191,32.44987 -117.0386,87.72707 -156.2187,153.84375 a 116.84021,116.84021 0 0 0 -0.4063,0.6875 c -3.2551,5.58023 -9.2763,16.37405 -13.5937,23.96875 -6.8653,-41.56518 -20.3791,-81.16437 -43.2813,-117.15625 -44.8397,-70.45741 -131.8694,-102.4667 -208.4062,-102.46875 -75.0832,0.002 -152.4188,25.19753 -207.2812,78.34375 a 116.84021,116.84021 0 0 0 -1.3438,1.3125 c -45.8279,45.82937 -77.373,104.9604 -92.5,168.21875 a 116.84021,116.84021 0 0 0 -0.062,0.1875 c -14.3454,60.4555 -28.8609,131.65904 -43.7813,214.21875 -14.9856,82.91996 -28.4126,169.09861 -40.3437,258.5625 -0.01,0.0633 -0.023,0.12418 -0.031,0.1875 -4.7617,35.32415 -9.0555,70.384604 -13.1562,105.3125 -20.8386,17.72107 -43.5815,36.206182 -68.5938,55.4375 -0.1031,0.079285 -0.2093,0.1394411 -0.3124,0.21875 -50.5921,37.923382 -104.5087,73.281556 -161.875,106.0625 C 6466.1006,141.29053 6408.9214,167.64387 6350,188.75 a 116.84021,116.84021 0 0 0 -0.5312,0.21875 c -8.0326,2.92092 -15.8825,5.49862 -23.6563,7.9375 76.5794,-45.11063 144.5596,-97.015878 202.625,-156.15625 60.1588,-61.273121 108.8128,-128.435395 144.125,-201 l 0.031,0.0312 c 0.1758,-0.35174 0.3248,-0.71054 0.5,-1.0625 0.052,-0.10468 0.1042,-0.2078 0.1562,-0.3125 36.8044,-74.07798 57.0923,-152.9778 57.0938,-232.5 -0,-69.30414 -12.3888,-136.36074 -38.9688,-197.5 a 116.84021,116.84021 0 0 0 -0.031,0 c -25.3435,-58.28483 -62.3472,-110.44494 -109.0313,-152.625 l 0.031,-0.0312 c -0.478,-0.45065 -0.9889,-0.86402 -1.4688,-1.3125 -0.363,-0.32493 -0.6983,-0.67628 -1.0625,-1 l -0.031,0.0312 c -45.3694,-42.12134 -99.1704,-74.65938 -158.1562,-96.78125 a 116.84021,116.84021 0 0 0 0,-0.0312 c -60.8488,-22.81607 -126.1615,-33.81078 -193.375,-33.8125 -81.1551,0.002 -159.3007,14.98728 -230.5938,46.09375 -0.052,0.0221 -0.1046,0.0404 -0.1562,0.0625 -0.2481,0.10835 -0.502,0.20375 -0.75,0.3125 l 0,0.0312 c -66.3106,28.54236 -127.2414,68.07229 -181.1562,117.28125 -0.028,0.0252 -0.066,0.0373 -0.094,0.0625 -52.0814,47.46774 -97.4441,102.74761 -135.8125,164.65625 -0.1495,0.23736 -0.2882,0.48128 -0.4375,0.71875 -0.02,0.032 -0.043,0.0617 -0.062,0.0937 -37.0464,58.95596 -68.1781,121.30198 -93.2187,186.625 a 116.84021,116.84021 0 0 0 -0.5938,1.59375 c -23.8311,64.99462 -41.756,131.77455 -53.6875,200 -0.018,0.10468 -0.044,0.20781 -0.062,0.3125 -11.7599,66.376982 -17.8752,130.682675 -17.875,192.9375 0,3.689852 0.2051,7.271202 0.25,10.9375 -2.2426,1.511635 -4.5954,3.14692 -6.8125,4.625 -24.8052,16.536657 -50.5987,33.146523 -77.3125,49.75 -25.7121,15.0448 -50.7867,28.66109 -75.1875,40.875 -13.221,6.3321 -25.7789,11.67419 -37.75,16.28125 -2.0454,-6.60187 -4.0219,-13.54447 -5.9063,-20.90625 -2.9707,-15.80637 -4.5003,-31.92828 -4.5,-48.8125 l 0,-10.8125 c 2.2591,-13.761592 5.0084,-27.923532 8.5313,-42.71875 4.5844,-19.256012 9.1178,-36.906585 13.5625,-52.90625 a 116.84021,116.84021 0 0 0 0.4062,-1.5625 c 4.1348,-15.7135 8.156,-29.762467 12.0626,-42.46875 4.4318,-11.596328 8.2601,-20.426641 10.2187,-24.34375 44.1117,-86.28003 91.136,-174.55875 141.0937,-264.875 0.064,-0.11509 0.1239,-0.22865 0.1876,-0.34375 52.0133,-93.23636 103.5361,-187.44161 154.5624,-282.625 a 116.84021,116.84021 0 0 0 0.2188,-0.4375 c 51.4415,-96.94781 100.9101,-194.38317 148.4062,-292.34375 48.3717,-99.7669 90.8623,-199.3285 127.375,-298.6563 0.076,-0.2065 0.1429,-0.4184 0.2188,-0.625 37.7588,-101.117 67.5729,-201.7267 89.2812,-301.7812 0.05,-0.2291 0.1067,-0.4584 0.1563,-0.6875 0.014,-0.062 0.017,-0.1255 0.031,-0.1875 23.098,-103.174 34.9049,-205.3217 34.9062,-305.9688 -0,-46.389 -3.8395,-92.1465 -11.5,-137.0312 -0.045,-0.3044 -0.1112,-0.602 -0.1562,-0.9062 -0.132,-0.7675 -0.2096,-1.5457 -0.3438,-2.3126 l -0.031,0 c -7.5119,-49.3024 -21.3669,-96.1643 -42.8126,-139.0624 -23.2433,-46.4791 -58.1005,-87.6956 -101.0624,-117.4688 l 0.031,-0.062 c -0.5864,-0.4188 -1.1919,-0.8056 -1.7812,-1.2187 -0.1791,-0.1222 -0.3519,-0.2533 -0.5313,-0.375 l 0,0.031 c -49.9452,-34.8171 -110.4268,-49.4961 -169.5937,-49.5 z m -213.6876,527.1562 c 0.1042,0.3334 0.4584,2.9167 0.5313,3.875 -0.4996,-2.2521 -0.6784,-3.7412 -0.5313,-3.875 z m -1785.8437,318.8438 c 69.6131,0 138.1536,3.2169 205.6563,9.6875 a 116.84021,116.84021 0 0 0 1.5937,0.1563 c 66.7766,5.4906 129.7007,14.5685 188.9063,27.125 a 116.84021,116.84021 0 0 0 1.6562,0.3437 c 59.4417,11.7105 113.4535,26.4161 162,43.75 0.01,0 0.022,-0 0.031,0 47.5051,16.9706 86.433,36.1656 117.125,56.375 a 116.84021,116.84021 0 0 0 2.75,1.7813 c 29.7385,18.4117 48.2465,36.705 59.9688,54.0312 a 116.84021,116.84021 0 0 0 0.9062,1.3125 c 9.7959,14.0569 12.6868,23.4777 12.6876,40.1563 -0,40.4329 -8.9914,75.2771 -29.2188,111.6874 a 116.84021,116.84021 0 0 0 -0.375,0.6563 c -19.332,35.3298 -47.5299,67.5106 -89.2812,97.875 a 116.84021,116.84021 0 0 0 -0.8126,0.59375 c -39.9183,29.5694 -91.7168,55.43182 -157.25,75.6875 -0.096,0.0298 -0.1849,0.064 -0.2812,0.0937 -62.3685,18.59549 -135.424,28.68878 -219.7188,28.6875 -37.1654,0.001 -71.5409,-1.37185 -103.0624,-4 l 0,0.0312 c -38.5732,-4.25007 -79.7194,-6.27974 -123.9688,-6.28125 -37.3036,0.002 -70.2215,2.18548 -104.4375,11.1875 a 116.84021,116.84021 0 0 0 -1.5625,0.40625 c -31.5524,8.76667 -64.6811,24.27654 -92.3125,51.90625 a 116.84021,116.84021 0 0 0 -4.25,4.46875 c -25.169,27.96684 -39.5649,62.55803 -45.5937,94.71875 a 116.84021,116.84021 0 0 0 -0.9688,6.09375 c -2.8919,21.68164 -3.9698,43.90798 -3.9688,68.15625 -0,62.48481 17.3887,126.96767 57.2188,177.65625 a 116.84021,116.84021 0 0 0 1.3125,1.59375 c 32.1552,39.46662 72.7553,71.5667 118.3437,96.3125 a 116.84021,116.84021 0 0 0 3.4688,1.8125 c 43.276,21.64001 90.2761,38.84607 140.7812,52.3125 a 116.84021,116.84021 0 0 0 0.5938,0.15625 c 44.3579,11.573 89.231,23.64173 134.5938,36.1875 a 116.84021,116.84021 0 0 0 2.8124,0.75 c 43.3763,10.84531 85.1731,23.43516 125.4376,37.75 a 116.84021,116.84021 0 0 0 2.9062,0.96875 c 34.3062,11.18794 62.0685,25.58532 85.2188,42.78125 a 116.84021,116.84021 0 0 0 1.25,0.9375 c 21.8395,15.77429 38.0819,33.90055 51.625,57.90625 a 116.84021,116.84021 0 0 0 0.6562,1.125 c 8.5659,14.79717 16.4676,40.213 16.4688,82.09375 -0,81.7400187 -15.4133,143.756225 -41.5,191.8125 a 116.84021,116.84021 0 0 0 -0.2813,0.53125 c -28.1874,52.56384 -63.9421,93.58705 -110.2187,127.28125 -48.0618,34.01118 -103.4113,59.69964 -168.75,76.9375 -68.4951,17.07453 -139.1236,25.65641 -212.7813,25.65625 -60.5805,1.6e-4 -121.1848,-6.01788 -182.1875,-18.21875 -44.6468,-8.92913 -86.8211,-19.21764 -126.8438,-30.625 -0.7515,-6.63504 -1.39,-13.06527 -1.875,-19.25 -3e-4,-10.91576 -4e-4,-20.81356 0,-27.46875 -4e-4,-47.76739 0.4838,-97.56004 1.4376,-149.3125 1.9199,-52.613 4.2875,-105.19799612 7.1562,-157.78125 2.9069,-53.30284 5.8386,-105.69217 8.75,-157.125 3.8025,-50.23166 8.0554,-97.43728 12.75,-141.5625 a 116.84021,116.84021 0 0 0 0.094,-1.15625 c 7.5649,-78.49155 17.5192,-159.06708 29.8437,-241.6875 0.01,-0.0526 0.023,-0.10361 0.031,-0.15625 13.0706,-81.19522 29.8312,-160.34874 50.2812,-237.5 a 116.84021,116.84021 0 0 0 0.094,-0.34375 c 20.14,-76.8992 44.7655,-149.68075 73.75,-218.5313 0.013,-0.03 0.018,-0.063 0.031,-0.094 28.8356,-66.1794 62.7955,-125.2128 101.8438,-177.8437 a 116.84021,116.84021 0 0 0 6.4687,-129.5626 c -17.2385,-28.847 -37.9337,-55.4001 -61.2187,-78.8437 31.2888,-1.3023 62.6526,-2.1867 94.2187,-2.1875 z m 994.7813,818.5625 c -6.2361,38.66717 -11.7308,77.03092 -16.4376,115.03125 l -0.031,0 c -3.9274,31.41926 -7.1938,62.1902 -9.9688,92.4375 -19.3706,-29.23556 -41.0873,-56.89009 -65.25,-82.59375 l 0.031,-0.0312 c -0.1903,-0.20555 -0.4031,-0.38849 -0.5937,-0.59375 -0.055,-0.0595 -0.101,-0.12805 -0.1563,-0.1875 -18.07,-19.44181 -37.576,-37.46118 -58.125,-54.34375 53.9618,-20.3934 104.288,-43.46538 150.5313,-69.71875 z m 4014.4687,175.59375 c 0,0.0471 0.053,1.08026 0.062,1.1875 -0.1617,-1.22035 -0.08,-1.36072 -0.062,-1.1875 z m -2505.2187,84.8125 c 1.5002,7.67363 2.6559,17.30712 2.6562,30.25 0,0.89819 0.1458,8.40028 -13.875,27.46875 -17.4873,23.78265 -40.0182,47.01872 -68.7812,69.5625 a 116.84021,116.84021 0 0 0 -1.2188,0.96875 c -7.1513,5.76082 -14.4999,11.20739 -22,16.4375 4.6648,-17.92326 10.2094,-35.67935 16.7812,-53.3125 8.7305,-21.97266 18.8761,-39.35607 30.2188,-53.625 0.043,-0.053 0.082,-0.10335 0.125,-0.15625 10.5545,-13.02953 22.2891,-22.7686 37.9062,-31.21875 4.7422,-2.39517 10.7628,-4.5945 18.1876,-6.375 z m 4118.0932,97.0625 -39.25,189.25 a 116.84021,116.84021 0 0 0 -1.531,9.21875 c -2.715,21.721724 -10.035,55.9101734 -22.593,98.96875 a 116.84021,116.84021 0 0 0 -0.594,2.1875 c -10.755,39.707162 -25.225,78.0881 -43.5,115.46875 -17.088,34.9512 -36.057,62.48104 -56.406,84.1875 -1.501,1.60086 -2.195,2.27866 -3.313,3.4375 -1.436,-4.56241 -2.69,-9.71696 -3.781,-15.375 -2.107,-17.70301 -3.25,-35.86813 -3.25,-54.65625 0,-32.94135 4.142,-70.181313 13.187,-111.59375 10.104,-41.807012 23.957,-83.399894 41.813,-125.0625 a 116.84021,116.84021 0 0 0 0.344,-0.78125 c 17.935,-42.70456 39.111,-83.02078 63.687,-121.15625 a 116.84021,116.84021 0 0 0 0.03,0 c 17.633,-27.36124 36.052,-51.93055 55.156,-74.09375 z M 8735.25,-235.5625 c 0.8805,35.11496 3.6065,140.457674 2.6875,105.34375 1.2884,55.054098 6.1106,130.07147253 4.625,104.25 1.0308,15.468146 2.0693,28.9987323 3.4687,41.78125 -17.0516,39.689882 -35.0997,75.315015 -54.0624,106.46875 a 116.84021,116.84021 0 0 0 -0.4063,0.625 c -9.0472,15.07809 -19.3554,30.01432 -31.0625,44.84375 a 116.84021,116.84021 0 0 0 -0.5312,0.6875 c -9.6744,12.43801 -19.7618,23.46752 -30.25,33.4375 -8.0214,6.81489 -15.7363,11.91499 -23.5313,15.8125 a 116.84021,116.84021 0 0 0 -1.4375,0.75 c -21.3403,-0.29723 -32.5904,-3.95871 -32.75,-4.03125 -3.3512,-1.52317 -4.6333,-2.3604 -5.25,-2.78125 -1.576,-2.22529 -2.7268,-4.65681 -3.7188,-7.90625 -2.0141,-11.05366 -3.094,-21.78852 -3.0937,-32.40625 -4e-4,-34.79463 6.4822,-79.019324 21.7187,-131.5 14.8625,-51.19377 36.5626,-102.759564 65.625,-155.03125 24.4822,-42.58936 53.6804,-82.57381 87.9688,-120.34375 z"
             inkscape:href="#text4098"
             id="path4601"
             style="font-size:500px;font-style:normal;font-variant:normal;font-weight:normal;font-stretch:normal;line-height:125%;letter-spacing:0px;word-spacing:0px;fill:#ffffff;fill-opacity:1;stroke:#000000;stroke-width:20;stroke-miterlimit:4;stroke-opacity:1;stroke-dasharray:none;font-family:Pacifico;-inkscape-font-specification:Pacifico"
             xlink:href="#text4098"
             inkscape:original="M 5719.9688 -2168.0312 C 5658.4443 -2168.0284 5597.8819 -2149.4816 5538.3125 -2112.375 C 5478.7414 -2075.2629 5421.6242 -2023.9895 5366.9375 -1958.5625 C 5312.2493 -1894.1068 5259.9916 -1817.9194 5210.1875 -1730.0312 C 5160.3823 -1643.1149 5113.9995 -1549.365 5071.0312 -1448.7812 C 5030.4808 -1351.6477 4993.6709 -1250.3257 4960.4062 -1145 C 4963.7116 -1168.5301 4965.5618 -1192.1501 4965.5625 -1215.875 C 4965.5603 -1279.3496 4946.5213 -1340.4043 4908.4375 -1399 C 4871.326 -1457.5916 4819.5604 -1511.7869 4753.1562 -1561.5938 C 4687.7246 -1612.3727 4610.5841 -1658.2633 4521.7188 -1699.2812 C 4432.8499 -1741.2711 4337.1312 -1776.9195 4234.5938 -1806.2188 C 4132.0533 -1835.5131 4025.1394 -1857.9662 3913.8125 -1873.5938 C 3802.4833 -1890.1928 3691.6319 -1898.4975 3581.2812 -1898.5 C 3486.554 -1898.4975 3394.2806 -1892.1615 3304.4375 -1879.4688 C 3214.5933 -1866.7709 3129.1481 -1846.7475 3048.0938 -1819.4062 C 2968.0154 -1793.0366 2893.7967 -1758.8648 2825.4375 -1716.875 C 2758.0547 -1675.8571 2699.9532 -1625.5368 2651.125 -1565.9688 C 2601.3205 -1507.3728 2562.7189 -1440.0135 2535.375 -1363.8438 C 2508.0315 -1287.6699 2494.3753 -1201.7325 2494.375 -1106.0312 C 2494.3753 -1007.3968 2515.844 -958.0609 2558.8125 -958.0625 C 2590.0627 -958.0609 2630.6017 -986.88118 2680.4062 -1044.5 C 2730.211 -1102.1154 2786.8672 -1188.545 2850.3438 -1303.7812 C 2881.5936 -1345.7714 2926.992 -1382.373 2986.5625 -1413.625 C 3047.1091 -1445.8495 3115.945 -1472.2401 3193.0938 -1492.75 C 3271.2182 -1514.2322 3355.2182 -1529.8572 3445.0625 -1539.625 C 3535.882 -1550.365 3627.6632 -1555.7165 3720.4375 -1555.7188 C 3793.6787 -1555.7165 3865.9598 -1552.3025 3937.25 -1545.4688 C 4008.5378 -1539.6072 4076.3893 -1529.8572 4140.8438 -1516.1875 C 4205.2954 -1503.49 4264.8735 -1487.3729 4319.5625 -1467.8438 C 4374.2484 -1448.3104 4421.6155 -1425.3651 4461.6562 -1399 C 4502.6701 -1373.6074 4534.4123 -1344.2949 4556.875 -1311.0938 C 4579.3341 -1278.8653 4590.5607 -1243.2169 4590.5625 -1204.1562 C 4590.5607 -1144.5841 4575.9201 -1088.4514 4546.625 -1035.7188 C 4518.3029 -983.95931 4477.2717 -938.52967 4423.5625 -899.46875 C 4370.8265 -860.40475 4306.3891 -829.15478 4230.2188 -805.71875 C 4155.022 -783.25638 4070.5299 -772.02983 3976.7812 -772.03125 C 3936.741 -772.02983 3899.1551 -773.50639 3864 -776.4375 C 3829.8192 -780.34233 3791.7412 -782.27982 3749.75 -782.28125 C 3718.499 -782.27982 3693.585 -779.85014 3675.0312 -774.96875 C 3657.4522 -770.08452 3643.796 -762.76422 3634.0312 -753 C 3625.2413 -743.23299 3619.3663 -730.52987 3616.4375 -714.90625 C 3614.4835 -700.25647 3613.4991 -682.69399 3613.5 -662.1875 C 3613.4991 -619.21749 3624.2648 -584.06127 3645.75 -556.71875 C 3667.2335 -530.35039 3695.0694 -507.86604 3729.25 -489.3125 C 3764.4052 -471.73326 3803.9286 -457.09265 3847.875 -445.375 C 3892.7957 -433.65517 3938.2254 -421.44425 3984.125 -408.75 C 4030.9987 -397.03021 4076.3971 -383.37397 4120.3438 -367.75 C 4165.2642 -353.10056 4204.8189 -333.07715 4239 -307.6875 C 4274.1547 -282.29595 4302.4828 -250.55379 4323.9688 -212.46875 C 4345.4515 -175.35856 4356.1859 -128.4836 4356.1875 -71.84375 C 4356.1859 24.836557 4337.639 107.35991 4300.5312 175.71875 C 4264.3969 243.10196 4216.0454 298.77378 4155.5 342.71875 C 4094.9518 385.68776 4025.6237 417.42991 3947.5 437.9375 C 3869.3739 457.46894 3788.8193 467.21893 3705.8125 467.21875 C 3637.4522 467.21893 3569.0773 460.39081 3500.7188 446.71875 C 3432.3587 433.04709 3368.3822 416.43773 3308.8125 396.90625 C 3300.9995 391.04713 3295.1557 382.25026 3291.25 370.53125 C 3287.3432 357.83622 3284.4214 344.17999 3282.4688 329.53125 C 3280.5151 314.88314 3279.0385 300.70347 3278.0625 287.03125 C 3278.062 273.35975 3278.062 262.62538 3278.0625 254.8125 C 3278.062 205.98481 3278.5542 155.20361 3279.5312 102.46875 C 3281.4839 48.758408 3283.9135 -4.9446631 3286.8438 -58.65625 C 3289.7729 -112.36643 3292.726 -165.11638 3295.6562 -216.875 C 3299.562 -268.6319 3303.9291 -317.44435 3308.8125 -363.34375 C 3316.6244 -444.39735 3326.8979 -527.41289 3339.5938 -612.375 C 3353.265 -697.3346 3370.8275 -780.35014 3392.3125 -861.40625 C 3413.7962 -943.43591 3440.1868 -1021.5608 3471.4375 -1095.7812 C 3503.6633 -1169.9982 3542.2336 -1237.3575 3587.1562 -1297.9062 C 3539.3039 -1377.9824 3479.7258 -1418.0292 3408.4375 -1418.0312 C 3351.7963 -1418.0292 3288.8042 -1394.0995 3219.4688 -1346.25 C 3140.3668 -1230.0372 3076.8825 -1098.2092 3029.0312 -950.75 C 2981.1795 -804.26418 2944.5779 -649.95183 2919.1875 -487.84375 C 2893.7967 -325.7334 2876.6952 -159.73357 2867.9062 10.1875 C 2860.0937 180.10984 2856.1874 346.14092 2856.1875 508.25 C 2856.1874 543.40635 2866.4296 567.79695 2886.9375 581.46875 C 2908.4217 595.14067 2932.8436 605.4141 2960.1875 612.25 C 3021.7107 634.71095 3087.1325 655.68749 3156.4688 675.21875 C 3225.8042 694.74995 3296.1167 711.35931 3367.4062 725.03125 C 3439.6712 739.67959 3510.968 750.90614 3581.2812 758.71875 C 3651.5929 767.50769 3718.4912 771.90612 3781.9688 771.90625 C 3882.5536 771.90612 3974.8269 760.67957 4058.8125 738.21875 C 4142.7955 716.7343 4217.9985 686.9609 4284.4062 648.875 C 4351.7875 610.7891 4410.3812 566.34383 4460.1875 515.5625 C 4509.9904 463.80487 4551.5138 408.62524 4584.7188 350.03125 C 4617.92 291.43785 4642.8028 230.41448 4659.4062 166.9375 C 4676.0059 103.46148 4684.3106 40.961541 4684.3125 -20.5625 C 4684.3106 -95.757072 4672.0997 -167.54606 4647.6875 -235.90625 C 4623.2716 -304.26468 4586.6701 -364.33493 4537.8438 -416.09375 C 4489.0139 -468.82701 4428.4515 -510.31916 4356.1875 -540.59375 C 4283.9204 -571.84253 4199.4595 -587.46752 4102.7812 -587.46875 C 4255.1235 -590.3972 4385.4749 -610.91281 4493.875 -649 C 4603.2482 -687.08461 4692.5996 -735.40487 4761.9375 -794 C 4832.2479 -853.56881 4883.5213 -919.975 4915.75 -993.21875 C 4916.6029 -995.10025 4917.3252 -996.99221 4918.1562 -998.875 C 4900.768 -934.81779 4884.6949 -870.9062 4870.3438 -807.1875 C 4845.9295 -698.78772 4827.3826 -593.31907 4814.6875 -490.78125 C 4801.992 -389.21772 4795.6561 -294.97562 4795.6562 -208.0625 C 4795.6561 -94.780511 4804.9139 13.610006 4823.4688 117.125 C 4842.9998 219.66449 4869.3592 310.00033 4902.5625 388.125 C 4936.7419 466.25018 4976.2966 528.75012 5021.2188 575.625 C 5067.1168 621.52346 5116.4527 644.46875 5169.1875 644.46875 C 5202.3901 644.46875 5238.0385 640.07032 5276.125 631.28125 C 5314.2103 621.51565 5353.2727 608.81254 5393.3125 593.1875 C 5433.3508 577.56257 5472.8742 560.00008 5511.9375 540.46875 C 5551.9757 519.96106 5590.5772 499.44546 5627.6875 478.9375 C 5662.9695 458.66032 5698.4433 436.91629 5734.0625 414.28125 C 5744.694 430.54501 5756.0875 446.289 5768.3125 461.375 C 5814.2106 517.03919 5871.3278 561.45321 5939.6875 594.65625 C 6009.0229 627.85939 6089.5775 644.46875 6181.375 644.46875 C 6239.968 644.46875 6297.6086 638.13282 6354.25 625.4375 C 6411.8663 611.76566 6467.0147 594.17193 6519.75 572.6875 C 6573.4599 550.22666 6624.2411 524.85168 6672.0938 496.53125 C 6720.9207 468.21111 6766.3503 439.39083 6808.3438 410.09375 C 6819.5234 402.18885 6830.6202 394.11664 6841.6562 385.9375 C 6842.6018 408.47747 6844.1361 430.70056 6846.4375 452.5625 C 6851.3201 488.69547 6860.0857 521.422 6872.7812 550.71875 C 6886.4529 579.03913 6905.4919 601.98442 6929.9062 619.5625 C 6954.32 636.16407 6986.5544 644.46875 7026.5938 644.46875 C 7058.8199 644.46875 7087.148 637.14844 7111.5625 622.5 C 7135.9761 607.8516 7157.937 580.50788 7177.4688 540.46875 L 7561.2812 -221.25 L 7584.7188 -221.25 C 7572.9991 -143.12421 7563.2178 -69.889911 7555.4062 -1.53125 C 7547.5929 65.852141 7543.6866 128.84427 7543.6875 187.4375 C 7543.6866 336.85187 7561.7413 450.62519 7597.875 528.75 C 7634.9834 605.89848 7680.413 644.46875 7734.125 644.46875 C 7787.8348 644.46875 7839.1082 637.14844 7887.9375 622.5 C 7936.7643 606.87504 7983.6393 587.34381 8028.5625 563.90625 C 8073.483 539.49229 8116.4517 512.14857 8157.4688 481.875 C 8161.3572 479.07164 8165.1283 476.27211 8169 473.46875 C 8173.2989 480.78466 8177.7314 488.02231 8182.375 495.0625 C 8213.6248 539.98448 8252.1951 576.09382 8298.0938 603.4375 C 8344.9684 630.78126 8400.148 644.46875 8463.625 644.46875 C 8508.5464 644.46875 8552.9604 637.64063 8596.9062 623.96875 C 8641.8275 609.32035 8685.7806 590.2813 8728.75 566.84375 C 8772.6946 543.40635 8814.6789 516.06263 8854.7188 484.8125 C 8895.7335 452.58613 8934.3038 418.87523 8970.4375 383.71875 C 8993.874 440.35958 9021.2177 485.78922 9052.4688 519.96875 C 9084.6942 554.14853 9116.4364 580.50788 9147.6875 599.0625 C 9179.9129 616.64065 9209.2254 628.35939 9235.5938 634.21875 C 9262.9362 640.07813 9283.4206 643 9297.0938 643 C 9321.5065 643 9347.8971 639.09376 9376.2188 631.28125 C 9405.5142 622.49221 9435.2876 611.75785 9465.5625 599.0625 C 9495.8345 585.39068 9526.5922 570.25789 9557.8438 553.65625 C 9589.0922 536.07823 9618.8968 518.4845 9647.2188 500.90625 C 9673.5146 484.51862 9699.9999 466.98495 9726.5938 448.8125 C 9744.0329 482.09748 9764.8658 511.72088 9789.2812 537.53125 C 9823.4607 572.68757 9862.5232 600.03129 9906.4688 619.5625 C 9951.3903 638.11719 9997.3121 647.40625 10044.188 647.40625 C 10088.132 647.40625 10132.054 640.08594 10176 625.4375 C 10219.945 610.7891 10261.96 592.21099 10302 569.75 C 10343.015 546.3126 10380.601 520.44544 10414.781 492.125 C 10448.96 463.80487 10477.78 435.96896 10501.219 408.625 C 10532.468 487.72672 10569.562 548.28916 10612.531 590.28125 C 10655.499 631.29689 10709.202 651.78124 10773.656 651.78125 C 10827.366 651.78124 10881.1 638.61719 10934.812 612.25 C 10988.522 585.88287 11038.811 553.64853 11085.688 515.5625 C 11132.561 477.47673 11174.545 437.42989 11211.656 395.4375 C 11249.741 353.4456 11280.006 316.84408 11302.469 285.59375 L 11232.156 -39.625 C 11183.327 26.781868 11135.006 86.359933 11087.156 139.09375 C 11066.647 161.55517 11044.655 183.51609 11021.219 205 C 10998.756 225.50823 10975.811 244.08634 10952.375 260.6875 C 10929.913 277.28943 10907.46 290.94567 10885 301.6875 C 10862.538 311.45346 10841.038 316.34408 10820.531 316.34375 C 10793.186 316.34408 10775.132 303.64097 10766.344 278.25 C 10758.53 251.88321 10754.624 215.74262 10754.625 169.84375 C 10754.624 116.13334 10759.514 59.508397 10769.281 -0.0625 C 10779.046 -60.60867 10789.78 -120.67892 10801.5 -180.25 C 10813.218 -240.79599 10823.952 -299.38968 10833.719 -356.03125 C 10843.483 -413.64738 10848.374 -465.87389 10848.375 -512.75 C 10848.374 -543.02225 10845.452 -566.95191 10839.594 -584.53125 C 10834.71 -602.10813 10827.389 -615.79561 10817.625 -625.5625 C 10807.858 -635.32685 10796.632 -641.66278 10783.938 -644.59375 C 10771.241 -647.52215 10757.554 -648.99871 10742.906 -649 C 10732.163 -648.99871 10720.936 -648.50652 10709.219 -647.53125 C 10698.475 -647.52996 10687.741 -647.52996 10677 -647.53125 C 10664.304 -647.52996 10651.6 -648.02215 10638.906 -649 C 10627.186 -650.95183 10615.468 -654.36589 10603.75 -659.25 C 10592.03 -664.1315 10582.249 -671.944 10574.438 -682.6875 C 10566.624 -693.42835 10558.351 -704.16271 10549.562 -714.90625 C 10541.749 -726.62363 10531.476 -736.86581 10518.781 -745.65625 C 10506.085 -754.44391 10488.523 -758.84235 10466.062 -758.84375 C 10398.679 -758.84235 10332.273 -744.20174 10266.844 -714.90625 C 10202.39 -686.58461 10140.843 -648.01433 10082.25 -599.1875 C 10023.656 -550.35818 9969.4606 -493.24105 9919.6562 -427.8125 C 9870.8278 -362.38181 9828.3513 -292.53031 9792.2188 -218.3125 C 9756.0858 -145.06952 9727.7577 -69.897723 9707.25 7.25 C 9697.2338 44.930208 9689.7179 82.158126 9684.5938 118.90625 C 9669.5234 130.40553 9654.5791 141.58718 9639.875 152.28125 C 9616.4359 168.88329 9592.014 185.49265 9566.625 202.09375 C 9542.2094 217.71918 9517.8188 231.8676 9493.4062 244.5625 C 9468.9907 257.2582 9445.5533 267.50038 9423.0938 275.3125 C 9401.608 282.1488 9381.5846 285.59411 9363.0312 285.59375 C 9343.4987 285.59411 9326.8893 279.71911 9313.2188 268 C 9300.5221 256.28164 9290.28 240.65665 9282.4688 221.125 C 9274.655 200.61763 9268.78 177.67234 9264.875 152.28125 C 9261.9441 126.89114 9260.4988 100.03961 9260.5 71.71875 C 9260.4988 49.258408 9261.9441 26.313118 9264.875 2.875 C 9267.8034 -21.538396 9271.2175 -44.975873 9275.125 -67.4375 C 9280.0065 -90.874265 9284.8972 -112.37424 9289.7812 -131.90625 C 9294.6628 -151.4367 9299.5534 -168.04606 9304.4375 -181.71875 C 9355.2174 -304.76468 9407.4439 -423.39737 9461.1562 -537.65625 C 9514.8657 -651.91277 9564.6938 -767.16265 9610.5938 -883.375 C 9656.4905 -999.58429 9696.5061 -1118.7092 9730.6875 -1240.7812 C 9764.8654 -1363.8261 9788.3029 -1494.2088 9801 -1631.9062 C 9803.9279 -1668.0367 9805.4045 -1703.193 9805.4062 -1737.375 C 9805.4045 -1793.0366 9801.006 -1846.7397 9792.2188 -1898.5 C 9783.4279 -1951.2318 9768.7873 -1997.1224 9748.2812 -2036.1875 C 9728.7483 -2076.2238 9702.8811 -2107.966 9670.6562 -2131.4062 C 9638.4281 -2155.8175 9599.3656 -2168.0284 9553.4688 -2168.0312 C 9490.9673 -2168.0284 9430.4048 -2148.4972 9371.8125 -2109.4375 C 9313.2174 -2071.3488 9258.0378 -2018.138 9206.2812 -1949.7812 C 9154.5223 -1881.4193 9106.663 -1800.3413 9062.7188 -1706.5938 C 9019.749 -1612.8415 8982.1631 -1510.8182 8949.9375 -1400.4688 C 8917.71 -1290.1153 8891.8429 -1173.881 8872.3125 -1051.8125 C 8852.7804 -929.74061 8841.5539 -806.2173 8838.625 -681.21875 C 8764.4055 -674.38149 8694.554 -657.27995 8629.125 -629.9375 C 8563.6948 -602.5925 8503.1636 -567.92848 8447.5 -525.9375 C 8391.8356 -484.92075 8342.0387 -437.55361 8298.0938 -383.84375 C 8254.1482 -331.1084 8216.531 -274.48346 8185.2812 -213.9375 C 8155.0077 -154.36639 8131.5702 -92.358638 8114.9688 -27.90625 C 8099.3437 35.570921 8091.5312 98.563046 8091.5312 161.0625 C 8091.5312 181.71234 8092.4436 202.13407 8094.0938 222.34375 C 8072.7392 239.80068 8051.3833 255.54303 8030.0312 269.46875 C 8008.5455 283.14099 7988.0299 294.36754 7968.5 303.15625 C 7949.944 311.94565 7933.3347 316.34408 7918.6875 316.34375 C 7886.4597 316.34408 7862.53 296.81285 7846.9062 257.75 C 7832.2566 218.68793 7824.9363 168.8911 7824.9375 108.34375 C 7824.9363 72.21151 7826.9051 32.656862 7830.8125 -10.3125 C 7835.6941 -53.280552 7841.5379 -96.741446 7848.375 -140.6875 C 7855.2097 -184.63198 7862.53 -227.60069 7870.3438 -269.59375 C 7879.1316 -311.58498 7886.9441 -350.15526 7893.7812 -385.3125 C 7900.6159 -420.46769 7905.9987 -450.73328 7909.9062 -476.125 C 7914.7878 -501.51448 7917.2175 -519.6004 7917.2188 -530.34375 C 7917.2175 -602.60813 7902.5769 -659.23307 7873.2812 -700.25 C 7844.9597 -741.26424 7806.3895 -761.77984 7757.5625 -761.78125 C 7708.7333 -761.77984 7664.2881 -752.02985 7624.25 -732.5 C 7584.21 -712.96739 7548.5616 -676.8268 7517.3125 -624.09375 C 7510.4757 -612.37374 7500.2335 -594.28782 7486.5625 -569.875 C 7472.8898 -545.45975 7457.757 -517.1629 7441.1562 -484.9375 C 7424.5539 -453.6864 7406.468 -420.46769 7386.9375 -385.3125 C 7368.3821 -351.13182 7350.8196 -318.43654 7334.2188 -287.1875 C 7317.6165 -255.9366 7302.9759 -228.10069 7290.2812 -203.6875 C 7277.5853 -180.24918 7268.2963 -163.14763 7262.4375 -152.40625 L 7233.1562 -152.40625 C 7233.1557 -159.24138 7234.601 -172.43668 7237.5312 -191.96875 C 7240.4604 -212.47571 7243.8744 -235.91318 7247.7812 -262.28125 C 7252.6635 -289.62407 7257.5541 -318.90529 7262.4375 -350.15625 C 7267.3197 -382.38179 7271.7181 -413.13957 7275.625 -442.4375 C 7280.5072 -472.70982 7284.4134 -500.05354 7287.3438 -524.46875 C 7290.2728 -549.85818 7291.7494 -569.8816 7291.75 -584.53125 C 7291.7494 -638.2409 7281.4759 -681.20961 7260.9688 -713.4375 C 7240.4604 -745.66267 7203.8588 -761.77984 7151.125 -761.78125 C 7098.3902 -761.77984 7056.3746 -746.64705 7025.125 -716.375 C 6994.8512 -686.10023 6974.3669 -648.51433 6963.625 -603.59375 C 6949.9528 -545.97537 6935.7732 -476.61607 6921.125 -395.5625 C 6906.4763 -314.50685 6893.3123 -230.046 6881.5938 -142.15625 C 6874.8907 -92.442597 6868.8937 -43.074197 6863.4688 6 C 6831.7233 34.826664 6795.2641 65.035733 6754.125 96.625 C 6699.4363 137.64113 6641.3348 175.71922 6579.8125 210.875 C 6518.288 246.03165 6454.835 275.31287 6389.4062 298.75 C 6324.9523 322.18782 6263.4055 333.90656 6204.8125 333.90625 C 6186.2571 333.90656 6168.6946 331.96906 6152.0938 328.0625 C 6136.4681 324.15657 6121.3353 317.32845 6106.6875 307.5625 C 6092.0385 297.79722 6077.3666 284.10974 6062.7188 266.53125 C 6049.0463 248.95352 6034.8979 226.9926 6020.25 200.625 C 6105.2103 177.18797 6183.8274 144.46144 6256.0938 102.46875 C 6329.3351 60.477146 6392.3272 12.617819 6445.0625 -41.09375 C 6497.7959 -94.803948 6538.7958 -151.92108 6568.0938 -212.46875 C 6598.3661 -273.01471 6613.4989 -333.5459 6613.5 -394.09375 C 6613.4989 -449.75672 6603.7489 -500.07698 6584.2188 -545 C 6564.6864 -589.92064 6537.3427 -627.99873 6502.1875 -659.25 C 6468.0068 -691.47523 6427.4678 -716.35801 6380.5938 -733.9375 C 6333.7179 -751.51423 6282.9367 -760.3111 6228.25 -760.3125 C 6160.8665 -760.3111 6099.351 -748.10017 6043.6875 -723.6875 C 5988.9995 -700.24866 5939.2027 -668.04556 5894.2812 -627.03125 C 5850.3356 -586.99096 5811.7653 -540.116 5778.5625 -486.40625 C 5745.3591 -433.6708 5717.5232 -377.99898 5695.0625 -319.40625 C 5673.578 -260.81159 5657.4608 -200.74134 5646.7188 -139.21875 C 5635.9764 -78.671152 5630.5936 -21.061834 5630.5938 33.625 C 5630.5937 57.30149 5631.6773 80.65688 5633.5938 103.75 C 5612.7858 118.56738 5592.1775 132.95454 5572 146.40625 C 5545.6319 163.98486 5518.2882 181.57859 5489.9688 199.15625 C 5461.6476 215.75824 5433.8117 230.89104 5406.4688 244.5625 C 5380.1008 257.2582 5354.7259 267.50038 5330.3125 275.3125 C 5306.8743 283.12536 5285.8666 287.03161 5267.3125 287.03125 C 5259.4994 287.03161 5251.1947 281.68005 5242.4062 270.9375 C 5233.6166 259.21914 5225.3432 244.08634 5217.5312 225.53125 C 5209.7182 206.00044 5202.8588 184.50046 5197 161.0625 C 5192.1167 136.64895 5189.687 111.76616 5189.6875 86.375 L 5189.6875 65.84375 C 5192.6166 46.313098 5196.5229 26.289681 5201.4062 5.78125 C 5206.2885 -14.725903 5211.1791 -33.764947 5216.0625 -51.34375 C 5220.9447 -69.897723 5225.8041 -86.968019 5230.6875 -102.59375 C 5236.5463 -118.21799 5241.9291 -130.9211 5246.8125 -140.6875 C 5291.7337 -228.57725 5339.5931 -318.42091 5390.375 -410.21875 C 5442.132 -502.99104 5493.4054 -596.74095 5544.1875 -691.46875 C 5594.9678 -787.17044 5643.7803 -883.35003 5690.6562 -980.03125 C 5737.5302 -1076.7092 5778.5614 -1172.9201 5813.7188 -1268.625 C 5849.8504 -1365.3027 5878.1472 -1460.9901 5898.6562 -1555.7188 C 5920.1394 -1651.4196 5930.905 -1745.1695 5930.9062 -1836.9688 C 5930.905 -1877.9819 5927.4909 -1918.0287 5920.6562 -1957.0938 C 5914.7956 -1997.1302 5904.03 -2032.7786 5888.4062 -2064.0312 C 5872.78 -2095.2785 5851.3113 -2120.1925 5823.9688 -2138.75 C 5796.6239 -2158.2784 5761.9598 -2168.0284 5719.9688 -2168.0312 z M 9487.5312 -1828.1875 C 9505.1079 -1828.185 9518.3032 -1817.9429 9527.0938 -1797.4375 C 9536.8579 -1776.9273 9541.7485 -1740.2945 9541.75 -1687.5625 C 9541.7485 -1647.5211 9538.7953 -1593.3259 9532.9375 -1524.9688 C 9528.0532 -1473.2088 9519.2876 -1418.5214 9506.5938 -1360.9062 C 9494.8735 -1303.2871 9480.6938 -1244.6934 9464.0938 -1185.125 C 9447.4908 -1125.5529 9428.9439 -1065.9749 9408.4375 -1006.4062 C 9388.9049 -947.81091 9369.3736 -891.67815 9349.8438 -837.96875 C 9302.9675 -711.99083 9251.6941 -585.5144 9196.0312 -458.5625 L 9196.0312 -473.21875 C 9196.0301 -487.86606 9196.0301 -508.8426 9196.0312 -536.1875 C 9196.0301 -563.53004 9196.5223 -595.2722 9197.5 -631.40625 C 9198.4754 -668.51431 9199.9519 -709.05333 9201.9062 -753 C 9204.8347 -797.92043 9208.2488 -844.3032 9212.1562 -892.15625 C 9214.1082 -915.59219 9218.0144 -955.14684 9223.875 -1010.8125 C 9229.7332 -1066.4749 9237.5456 -1128.9748 9247.3125 -1198.3125 C 9257.0769 -1267.6465 9269.2878 -1339.4043 9283.9375 -1413.625 C 9298.5847 -1487.8416 9315.6549 -1555.7244 9335.1875 -1617.25 C 9354.7174 -1678.7711 9377.1705 -1729.0601 9402.5625 -1768.125 C 9427.9517 -1808.1616 9456.2798 -1828.185 9487.5312 -1828.1875 z M 5610.0938 -1793.0312 C 5617.9053 -1793.0288 5622.3037 -1782.7866 5623.2812 -1762.2812 C 5625.2334 -1742.7476 5626.2178 -1718.8179 5626.2188 -1690.5 C 5617.4287 -1601.6306 5596.9131 -1505.4197 5564.6875 -1401.9062 C 5532.4601 -1299.3652 5494.382 -1196.3575 5450.4375 -1092.8438 C 5406.4914 -989.32649 5359.6165 -888.74847 5309.8125 -791.09375 C 5260.9838 -693.43616 5214.601 -605.53 5170.6562 -527.40625 C 5170.6557 -621.15498 5177.4839 -717.33458 5191.1562 -815.96875 C 5204.8276 -915.57656 5223.3744 -1012.2796 5246.8125 -1106.0312 C 5270.2494 -1199.7794 5296.6087 -1288.1465 5325.9062 -1371.1562 C 5356.179 -1454.162 5387.429 -1526.9041 5419.6562 -1589.4062 C 5452.8586 -1651.904 5485.5851 -1701.2398 5517.8125 -1737.375 C 5551.0147 -1774.482 5581.7725 -1793.0288 5610.0938 -1793.0312 z M 6260.5 -480.53125 C 6283.9367 -480.53012 6303.4679 -466.3817 6319.0938 -438.0625 C 6335.6945 -409.74113 6343.9679 -373.60054 6343.9688 -329.65625 C 6343.9679 -298.40531 6331.7882 -266.17096 6307.375 -232.96875 C 6282.9602 -199.76478 6252.6633 -169.007 6216.5312 -140.6875 C 6181.3743 -112.36643 6142.804 -88.928954 6100.8125 -70.375 C 6059.7963 -52.796178 6021.7182 -43.999312 5986.5625 -44 C 5986.562 -65.483665 5987.5464 -91.382077 5989.5 -121.65625 C 5991.4526 -151.92889 5995.3589 -183.17886 6001.2188 -215.40625 C 6008.0542 -247.63192 6017.312 -279.37408 6029.0312 -310.625 C 6041.726 -342.85058 6057.8432 -371.14742 6077.375 -395.5625 C 6097.8822 -420.95206 6122.7963 -441.46766 6152.0938 -457.09375 C 6182.3665 -472.71763 6218.5071 -480.53012 6260.5 -480.53125 z M 10507.062 -480.53125 L 10417.719 -49.875 C 10413.812 -18.624337 10405.015 20.438124 10391.344 67.3125 C 10378.648 114.18803 10361.546 159.61767 10340.062 203.5625 C 10318.577 247.50821 10293.202 285.09411 10263.906 316.34375 C 10234.609 347.59405 10201.882 363.21903 10165.75 363.21875 C 10143.289 363.21903 10124.742 357.83622 10110.094 347.09375 C 10095.445 335.37531 10083.726 320.7347 10074.938 303.15625 C 10066.148 284.60192 10059.812 264.08632 10055.906 241.625 C 10052.976 218.18793 10051.5 194.25826 10051.5 169.84375 C 10051.5 126.87552 10056.882 80.984938 10067.625 32.15625 C 10079.343 -16.671214 10095.46 -64.991478 10115.969 -112.84375 C 10136.476 -161.67107 10160.867 -208.08508 10189.188 -252.03125 C 10217.507 -295.97562 10248.265 -335.03808 10281.469 -369.21875 C 10315.648 -403.39739 10351.788 -430.24893 10389.875 -449.78125 C 10427.96 -470.28795 10467.023 -480.53012 10507.062 -480.53125 z M 8844.4688 -462.96875 C 8845.4445 -463.9442 8846.4289 -454.16296 8847.4062 -433.65625 C 8848.382 -413.14738 8848.8742 -386.78803 8848.875 -354.5625 C 8849.8507 -322.33497 8850.8038 -286.68657 8851.7812 -247.625 C 8852.757 -208.56165 8853.7413 -170.48356 8854.7188 -133.375 C 8855.6945 -97.241446 8857.171 -64.022729 8859.125 -33.75 C 8861.0773 -4.4524761 8863.507 17.016252 8866.4375 30.6875 C 8843.9757 87.328682 8819.0929 138.10988 8791.75 183.03125 C 8780.0305 202.56294 8766.8352 221.60199 8752.1875 240.15625 C 8738.5149 257.73476 8723.8743 273.85193 8708.25 288.5 C 8692.6243 302.17222 8676.015 313.39877 8658.4375 322.1875 C 8641.8353 330.97688 8624.7338 335.37531 8607.1562 335.375 C 8572.976 335.37531 8545.1401 330.51594 8523.6562 320.75 C 8502.1714 310.98471 8485.5933 298.2816 8473.875 282.65625 C 8462.1558 267.03163 8453.8511 249.4379 8448.9688 229.90625 C 8445.0621 210.37543 8443.0933 190.8442 8443.0938 171.3125 C 8443.0933 122.4849 8451.8902 67.797452 8469.4688 7.25 C 8487.0464 -53.296177 8512.4526 -113.33518 8545.6562 -172.90625 C 8579.8354 -232.47569 8621.8197 -287.65532 8671.625 -338.4375 C 8722.4055 -390.19428 8780.0149 -431.71767 8844.4688 -462.96875 z "
             inkscape:radius="116.82853"
             sodipodi:type="inkscape:offset" />
          <text
             sodipodi:linespacing="125%"
             id="text4098"
             y="644.4668"
             x="2762.4404"
             style="font-size:500px;font-style:normal;font-variant:normal;font-weight:normal;font-stretch:normal;line-height:125%;letter-spacing:0px;word-spacing:0px;fill:#000000;fill-opacity:1;stroke:none;font-family:Pacifico;-inkscape-font-specification:Pacifico"
             xml:space="preserve"><tspan
               style="font-size:3000px"
               y="644.4668"
               x="2762.4404"
               id="tspan4100"
               sodipodi:role="line">Blenda</tspan></text>
        </g>
      </g>
    </g>
  </g>
</svg>
