<?xml version="1.0" encoding="UTF-8" standalone="no"?>
<!-- Created with Inkscape (http://www.inkscape.org/) -->

<svg
   xmlns:osb="http://www.openswatchbook.org/uri/2009/osb"
   xmlns:dc="http://purl.org/dc/elements/1.1/"
   xmlns:cc="http://creativecommons.org/ns#"
   xmlns:rdf="http://www.w3.org/1999/02/22-rdf-syntax-ns#"
   xmlns:svg="http://www.w3.org/2000/svg"
   xmlns="http://www.w3.org/2000/svg"
   xmlns:xlink="http://www.w3.org/1999/xlink"
   xmlns:sodipodi="http://sodipodi.sourceforge.net/DTD/sodipodi-0.dtd"
   xmlns:inkscape="http://www.inkscape.org/namespaces/inkscape"
   width="12158.626"
   height="3173.75"
   id="svg2"
   version="1.1"
   inkscape:version="0.48.5 r10040"
   sodipodi:docname="logo-black-2.svg">
  <defs
     id="defs4">
    <linearGradient
       id="linearGradient3993"
       osb:paint="solid">
      <stop
         style="stop-color:#000000;stop-opacity:1;"
         offset="0"
         id="stop3995" />
    </linearGradient>
    <linearGradient
       id="linearGradient3987"
       osb:paint="solid">
      <stop
         style="stop-color:#000000;stop-opacity:1;"
         offset="0"
         id="stop3989" />
    </linearGradient>
  </defs>
  <sodipodi:namedview
     id="base"
     pagecolor="#ffffff"
     bordercolor="#666666"
     borderopacity="1.0"
     inkscape:pageopacity="0.0"
     inkscape:pageshadow="2"
     inkscape:zoom="0.080708475"
     inkscape:cx="4067.0424"
     inkscape:cy="1184.6607"
     inkscape:document-units="px"
     inkscape:current-layer="g4013"
     showgrid="false"
     inkscape:window-width="1920"
     inkscape:window-height="1034"
     inkscape:window-x="0"
     inkscape:window-y="0"
     inkscape:window-maximized="1"
     inkscape:snap-grids="true"
     fit-margin-top="0"
     fit-margin-left="0"
     fit-margin-right="0"
     fit-margin-bottom="0"
     inkscape:snap-bbox="true"
     inkscape:object-paths="false"
     width="10000px"
     inkscape:snap-intersection-paths="false" />
  <metadata
     id="metadata7">
    <rdf:RDF>
      <cc:Work
         rdf:about="">
        <dc:format>image/svg+xml</dc:format>
        <dc:type
           rdf:resource="http://purl.org/dc/dcmitype/StillImage" />
        <dc:title></dc:title>
      </cc:Work>
    </rdf:RDF>
  </metadata>
  <g
     inkscape:label="Layer 1"
     inkscape:groupmode="layer"
     id="layer1"
     transform="translate(-97.129657,4342.7813)">
    <g
       id="g3182">
      <g
         id="g4013"
         transform="translate(3902.5478,53.679951)">
        <g
           id="g4103"
           transform="matrix(0.86218546,-0.2310219,0.2310219,0.86218546,81.995067,-1139.8583)">
          <g
             id="g3834"
             transform="translate(152.91964,61.276938)">
            <path
               transform="matrix(1.0821485,0.28996082,-0.28996082,1.0821485,-3436.2442,-4633.1699)"
               id="path3783"
               d="m 270.59375,1155.0625 c -0.15216,0.4913 -0.31714,0.9773 -0.46875,1.4687 l 699.75,-186.6562 -211.40625,791.75 582.87505,578.5312 1488.9374,-398 c 0.1128,-0.3661 0.2316,-0.7275 0.3438,-1.0937 L 2131.0312,2126.75 2531.875,639.5 c -0.1851,-0.19916 -0.377,-0.3946 -0.5625,-0.59375 L 2342.4688,1337.6562 1251.25,244.9375 c -1.78,0.40866 -3.5639,0.83638 -5.3438,1.25 l 511.375,512.6875 -1486.68745,396.1875 z"
               style="fill:#80c8b5;fill-opacity:1;fill-rule:evenodd;stroke:#332f3e;stroke-width:0;stroke-linecap:round;stroke-linejoin:miter;stroke-miterlimit:4;stroke-opacity:1;stroke-dasharray:none;stroke-dashoffset:0"
               inkscape:connector-curvature="0" />
            <path
               style="fill:#ff3100;fill-opacity:1;fill-rule:evenodd;stroke:#332f3e;stroke-width:43.83379364;stroke-linecap:round;stroke-linejoin:miter;stroke-miterlimit:4;stroke-opacity:1;stroke-dashoffset:0"
               inkscape:transform-center-x="30.73137"
               inkscape:transform-center-y="-53.228127"
               d="m -1758.8329,-1727.7836 -899.0488,0 -449.5254,-778.6005 449.5254,-778.5986 899.0489,0 449.526,778.5986 z"
               id="path3007"
               inkscape:connector-curvature="0" />
            <path
               inkscape:connector-curvature="0"
               style="fill:#76d6ff;fill-opacity:1;fill-rule:evenodd;stroke:#332f3e;stroke-width:22.40645218;stroke-linecap:round;stroke-linejoin:miter;stroke-miterlimit:4;stroke-opacity:1;stroke-dasharray:none;stroke-dashoffset:0"
               d="m -2153.2283,-4005.2802 863.9968,1498.8797 407.00486,-701.4035 c -243.65986,-459.7364 -719.31466,-777.5325 -1271.00166,-797.4762 z"
               id="path3011" />
            <path
               inkscape:connector-curvature="0"
               style="fill:#0bb5ff;fill-opacity:1;fill-rule:evenodd;stroke:#332f3e;stroke-width:22.40645218;stroke-linecap:round;stroke-linejoin:miter;stroke-miterlimit:4;stroke-opacity:1;stroke-dasharray:none;stroke-dashoffset:0"
               d="m -881.80174,-3206.9928 -865.03976,1493.2012 810.91936,1.8928 c 144.1598,-230.391 227.5688,-502.6906 227.5688,-794.5017 0,-253.0729 -62.7767,-491.4692 -173.4484,-700.5923 z"
               id="path3149" />
            <path
               inkscape:connector-curvature="0"
               style="fill:#76d6ff;fill-opacity:1;fill-rule:evenodd;stroke:#332f3e;stroke-width:22.40645218;stroke-linecap:round;stroke-linejoin:miter;stroke-miterlimit:4;stroke-opacity:1;stroke-dasharray:none;stroke-dashoffset:0"
               d="m -936.61764,-1710.8171 -1732.12706,-1.0044 414.615,704.6485 c 15.2118,0.4561 30.454,0.7726 45.7764,0.7726 536.1522,0 1006.5143,-281.3566 1271.73566,-704.4167 z"
               id="path3174" />
            <path
               inkscape:connector-curvature="0"
               style="fill:#0bb5ff;fill-opacity:1;fill-rule:evenodd;stroke:#332f3e;stroke-width:22.40645218;stroke-linecap:round;stroke-linejoin:miter;stroke-miterlimit:4;stroke-opacity:1;stroke-dasharray:none;stroke-dashoffset:0"
               d="m -2663.2593,-1711.8215 -463.4819,-795.8537 -406.155,705.8074 c 245.5491,460.6214 724.3564,778.0669 1278.7665,794.6948 l -415.6299,-715.0821 z"
               id="path3177"
               sodipodi:nodetypes="cccccc" />
            <path
               inkscape:connector-curvature="0"
               style="fill:#76d6ff;fill-opacity:1;fill-rule:evenodd;stroke:#332f3e;stroke-width:22.40645218;stroke-linecap:round;stroke-linejoin:miter;stroke-miterlimit:4;stroke-opacity:1;stroke-dasharray:none;stroke-dashoffset:0"
               d="m -3126.2776,-2506.9027 458.3441,-795.5059 -811.3444,-0.8886 c -145.0841,230.8983 -229.0755,504.0726 -229.0755,796.8967 0,254.6617 63.4812,494.4787 175.4572,704.5327 l 406.155,-705.8074 0.4636,0.7725 z"
               id="path3180" />
            <path
               transform="matrix(1.0821485,0.28996082,-0.28996082,1.0821485,-3436.2442,-4633.1699)"
               id="path3152"
               d="M 270.59375,1155.0625 1757.2812,758.875 1245.9062,246.1875 c -14.1546,3.28943 -28.2937,6.74144 -42.4374,10.53125 C 742.21613,380.31102 402.15551,730.2919 270.59375,1155.0625 z"
               style="fill:#0bb5ff;fill-opacity:1;fill-rule:evenodd;stroke:#332f3e;stroke-width:20;stroke-linecap:round;stroke-linejoin:miter;stroke-miterlimit:4;stroke-opacity:1;stroke-dasharray:none;stroke-dashoffset:0"
               inkscape:connector-curvature="0" />
          </g>
          <path
             style="fill:#332f3e;fill-opacity:1;fill-rule:evenodd;stroke:#332f3e;stroke-width:20.63089371;stroke-linecap:round;stroke-linejoin:miter;stroke-miterlimit:4;stroke-opacity:1;stroke-dashoffset:0"
             d="m -1606.6507,-4112.3588 c -5.7933,-1.5555 -11.5831,-3.0931 -17.4002,-4.5898 -137.8868,-35.4767 -282.4394,-54.3389 -431.3997,-54.339 -953.3453,10e-5 -1726.175,772.8241 -1726.1749,1726.1696 0,953.3454 772.858,1726.18394 1726.2033,1726.18394 953.3454,0 1726.17493,-772.82414 1726.17493,-1726.16954 0,-798.1009 -541.66637,-1469.6909 -1277.40343,-1667.2552 z m -57.591,207.2223 c 806.35216,216.0614 1284.87104,1044.8805 1068.80964,1851.2327 -216.0615,806.3523 -1044.88954,1284.90494 -1851.24174,1068.84344 -806.3522,-216.06134 -1284.8621,-1044.91424 -1068.8006,-1851.26644 216.0614,-806.3523 1044.8804,-1284.8712 1851.2327,-1068.8097 z"
             id="path4011"
             inkscape:connector-curvature="0" />
        </g>
        <g
           id="g3813"
           transform="translate(136.293,-1226.637)">
          <path
             transform="translate(0.0046599,-0.01172593)"
             d="m 2517.5,-3169.75 c -84.9999,0 -168.5185,26.6952 -243.4062,73.3438 -71.9002,44.7929 -137.7124,104.6055 -198.6563,177.4062 l -0.031,-0.031 c -0.1806,0.2129 -0.3506,0.4431 -0.5312,0.6562 -59.9916,70.8016 -115.927,152.6302 -168.5,245.3438 -0.095,0.1651 -0.1867,0.3348 -0.2812,0.5 -49.2038,85.9126 -94.8843,177.7671 -137.2813,275.375 -40.3922,-51.6948 -89.6319,-98.7809 -146.4687,-141.5938 -0.07,-0.055 -0.1485,-0.1017 -0.2188,-0.1562 -0.4476,-0.337 -0.864,-0.6949 -1.3125,-1.0313 l -0.031,0.031 c -73.0352,-56.4656 -157.0282,-106.1541 -251.5937,-149.875 -0.3106,-0.1468 -0.6268,-0.291 -0.9375,-0.4376 -94.8061,-44.7285 -196.2131,-82.4194 -304,-113.2187 -107.68075,-30.7628 -219.598,-54.2585 -335.65625,-70.5937 l 0,-0.031 c -0.32267,-0.048 -0.64608,-0.077 -0.96875,-0.125 -116.59238,-17.336 -232.9136,-26.0286 -348.78125,-26.0313 -99.93481,0 -197.70572,6.6982 -293.1875,20.1876 -96.232284,13.6007 -188.55086,35.1518 -276.5625,64.7812 -0.27308,0.09 -0.53952,0.1912 -0.8125,0.2812 -87.73102,28.9559 -170.00167,66.7607 -246.0625,113.4376 -0.13092,0.08 -0.27537,0.1383 -0.40625,0.2187 l 0.0312,0.031 c -77.37599,47.1582 -145.34942,105.8103 -202.1875,174.7812 l -0.0312,-0.031 c -0.31218,0.3672 -0.59481,0.7571 -0.90625,1.125 -0.13142,0.16 -0.27495,0.3085 -0.40625,0.4687 -58.50834,69.2324 -103.83891,148.9897 -135.34375,236.75 -32.60451,90.8301 -47.8747,190.4661 -47.875,297.2813 1.6e-4,57.7934 3.71701,106.7903 25.84375,157.5937 22.12674,50.8034 89.26707,107.1901 155.4375,107.1875 103.00756,0.01 152.24401,-60.0621 209.96875,-126.8438 57.48966,-66.5055 115.24917,-155.6282 179.03125,-270.6562 18.61643,-23.239 48.12255,-47.8774 93.03125,-71.4375 a 116.84021,116.84021 0 0 0 0.59375,-0.3437 c 8.2777,-4.4057 16.8822,-8.649 25.625,-12.8438 -60.10214,102.9714 -109.78339,215.2528 -149.09375,336.3438 -0.0235,0.072 -0.039,0.1462 -0.0625,0.2187 -49.8707,152.7075 -87.87341,313.0693 -114.15625,480.875 -26.03909,166.2497 -43.542,336.3001 -52.53125,510.09375 a 116.84021,116.84021 0 0 0 -0.0312,0.65625 c -7.89087,171.6248 -11.84384,339.42036 -11.84375,503.40625 -1.5e-4,57.84708 23.78324,131.13716 82.78125,170.46875 a 116.84021,116.84021 0 0 0 2.09375,1.34375 c 31.09129,19.78557 65.30349,34.14685 101,43.71875 63.05442,22.86781 129.50599,44.1721 199.5625,63.90625 72.1412808,20.321571 145.301048,37.62753 219.40625,51.875 0.40763,0.07837 0.81107,0.171814 1.21875,0.25 74.57967,15.081542 148.38511,26.715853 221.375,34.875 0.53689,0.06711 1.05716,0.120861 1.59375,0.1875 74.02321,9.19288242 145.21528,13.90611 213.59375,13.90625 108.81511,-1.406e-4 210.92271,-12.095153 305.8125,-37.34375 0.15554,-0.04139 0.31325,-0.08354 0.46875,-0.125 0.25118,-0.06436 0.49893,-0.122993 0.75,-0.1875 l 0,-0.03125 c 92.16525,-23.680621 176.7957,-56.96263 252.9063,-100.53125 l 0,0.0312 c 0.2125,-0.12011 0.4126,-0.25476 0.625,-0.375 75.7361,-42.87982 143.1898,-93.80694 201.0624,-152.8125 a 116.84021,116.84021 0 0 0 0.7813,-0.8125 c 56.0893,-58.29078 103.6931,-121.39554 141.9687,-188.9375 22.2322,-39.23517 41.2446,-79.72074 57.125,-121.25 14.8849,52.10859 31.965,101.2949 51.5626,147.40625 a 116.84021,116.84021 0 0 0 0.5,1.125 c 38.2749,87.48656 84.2315,161.93638 141.3437,221.53125 a 116.84021,116.84021 0 0 0 1.7187,1.78125 c 61.6938,61.69425 143.8929,103.09375 230.5626,103.09375 43.5202,0 87.8902,-5.72721 133.2187,-16.1875 a 116.84021,116.84021 0 0 0 2.75,-0.6875 c 43.0796,-11.04621 86.5899,-25.22208 130.625,-42.40625 43.4312,-16.94906 86.2593,-36.00502 128.4375,-57.09375 a 116.84021,116.84021 0 0 0 1,-0.53125 c 41.0375,-21.01952 80.6899,-42.0651 118.9688,-63.21875 a 116.84021,116.84021 0 0 0 1.7187,-0.96875 c 7.0239,-4.03677 13.9945,-8.315 21,-12.4375 51.5156,54.03655 112.8407,98.48358 181.7813,131.96875 a 116.84021,116.84021 0 0 0 0.5624,0.28125 c 87.4389,41.87249 186.2666,61.28125 292.1563,61.28125 67.0567,0 133.4029,-7.33672 198.4063,-21.90625 a 116.84021,116.84021 0 0 0 1.4062,-0.3125 c 63.1807,-14.99223 124.1521,-34.38406 182.6562,-58.21875 a 116.84021,116.84021 0 0 0 0.9688,-0.40625 c 58.1388,-24.31295 113.4884,-51.97092 165.9062,-82.9375 l 0,0.0312 c 0.2982,-0.17295 0.5771,-0.35826 0.875,-0.53125 9.2421,-5.36585 18.2768,-10.77408 27.3126,-16.1875 2.1191,5.49398 4.3512,10.92133 6.6874,16.3125 a 116.84021,116.84021 0 0 0 1.9688,4.34375 c 21.3921,44.31315 53.929,83.95683 94.0938,112.875 a 116.84021,116.84021 0 0 0 2.5624,1.78125 c 48.9743,33.30298 106.1812,45.15625 162.375,45.15625 49.9938,0 101.2477,-12.3678 145.0626,-38.65625 52.4499,-31.4705 84.754,-77.98449 110.125,-129.65625 l 0.031,0 0.6562,-1.34375 147.6876,-293.0625 c 6.9067,108.71064 25.412,200.72496 61.6874,279.15625 a 116.84021,116.84021 0 0 0 0.75,1.625 c 23.3275,48.49775 51.5058,91.18258 91.5313,125.1875 40.0255,34.00492 95.1567,56.75 150,56.75 64.3704,0 127.2722,-8.9165 187.3437,-26.9375 a 116.84021,116.84021 0 0 0 2.0313,-0.625 c 55.0709,-17.62313 108.1892,-39.73941 159.0625,-66.28125 a 116.84021,116.84021 0 0 0 1.75,-0.9375 c 20.5899,-11.19047 40.7266,-23.08869 60.5938,-35.40625 28.0809,27.85481 59.3018,52.38877 93.375,72.6875 a 116.84021,116.84021 0 0 0 0.9062,0.53125 c 66.6861,38.90051 144.1349,56.96875 224.4062,56.96875 56.8144,0 113.3342,-8.79585 168.0313,-25.8125 a 116.84021,116.84021 0 0 0 1.5,-0.5 c 51.5942,-16.82441 101.8716,-38.62293 150.5937,-65.125 l 0,0.0312 c 0.2302,-0.12275 0.4575,-0.25206 0.6876,-0.375 0.095,-0.0505 0.1867,-0.10571 0.2812,-0.15625 49.6193,-26.53683 96.9913,-57.44495 141.9062,-92.5 a 116.84021,116.84021 0 0 0 0.3126,-0.21875 c 4.2681,-3.35358 8.4025,-6.80179 12.625,-10.1875 8.4985,11.20954 17.3345,22.0489 26.7187,32.3125 a 116.84021,116.84021 0 0 0 1.2187,1.3125 c 37.9274,40.22744 77.4072,73.78374 120.5626,99.40625 a 116.84021,116.84021 0 0 0 3.7187,2.09375 c 39.1807,21.37209 77.7788,37.58322 118.4687,46.625 a 116.84021,116.84021 0 0 0 0.875,0.21875 c 31.186,6.68302 55.5052,11.40625 86,11.40625 36.8752,0 73.5448,-5.83822 110.1563,-15.9375 a 116.84021,116.84021 0 0 0 2.5,-0.71875 c 33.5564,-10.06735 67.2294,-22.24504 101,-36.40625 a 116.84021,116.84021 0 0 0 2.9063,-1.28125 c 32.6901,-14.76392 65.6774,-30.98566 99,-48.6875 a 116.84021,116.84021 0 0 0 2.4687,-1.375 c 27.9028,-15.69599 54.5659,-31.47297 80.4687,-47.3125 2.9126,3.25246 5.8107,6.5141 8.8126,9.6875 a 116.84021,116.84021 0 0 0 1.0937,1.15625 c 44.0863,45.34634 96.0848,81.81217 153.5313,107.34375 a 116.84021,116.84021 0 0 0 2.8437,1.21875 c 58.1964,24.03778 120.0235,36.6875 182.2813,36.6875 56.9189,0 113.7426,-9.62278 168.7812,-27.96875 50.833,-16.94451 99.6892,-38.5097 146.1875,-64.59375 a 116.84021,116.84021 0 0 0 0.8125,-0.46875 c 38.4847,-21.99153 74.6106,-46.25597 108.5,-72.59375 18.7977,27.55967 39.4372,52.74176 62.4375,75.21875 a 116.84021,116.84021 0 0 0 1,0.9375 c 64.0621,61.15187 152.5362,93.87499 241.7813,93.875 72.8444,-1e-5 145.0701,-18.38411 212.5937,-51.53125 61.5763,-30.22912 119.4742,-67.27914 173.0937,-110.84375 a 116.84021,116.84021 0 0 0 0.031,-0.0312 c 51.0727,-41.49769 97.4071,-85.56188 138.8125,-132.28125 0.3323,-0.37497 0.6683,-0.74969 1,-1.125 39.6314,-43.75474 72.1487,-82.88041 98.1562,-119.0625 A 116.84021,116.84021 0 0 0 8214.2188,-624 l -70.3126,-325.1875 a 116.84021,116.84021 0 0 0 -208.3124,-44.53125 c -46.695,63.50352 -92.5231,119.91144 -137.1876,169.15625 -0.082,0.0908 -0.1676,0.19048 -0.25,0.28125 -17.9579,19.6504 -37.315,39.01127 -58.1562,58.125 -0.055,0.0506 -0.1011,0.10567 -0.1562,0.15625 -19.0529,17.3837 -38.1983,32.8092 -57.4376,46.4375 a 116.84021,116.84021 0 0 0 -1.9062,1.40625 c -3.8395,2.83777 -7.6103,5.45704 -11.3438,8 -0.017,-1.71733 -0.125,-3.10858 -0.125,-4.875 -0,-46.6167 4.2319,-96.94903 13.0938,-151 a 116.84021,116.84021 0 0 0 0.062,-0.3125 c 9.5555,-59.25064 20.0434,-117.98631 31.5,-176.21875 a 116.84021,116.84021 0 0 0 0.062,-0.375 c 11.8601,-61.2828 22.7463,-120.6532 32.6562,-178.125 a 116.84021,116.84021 0 0 0 0.063,-0.3125 c 10.6351,-62.7541 16.3109,-121.2817 16.3124,-176.2812 -0,-35.8297 -2.4009,-68.4958 -13.0624,-103.0626 -0.5214,-1.8761 -1.1487,-3.7715 -1.7188,-5.6562 -9.0556,-29.9353 -24.3175,-60.7484 -50.2188,-86.6562 a 116.84021,116.84021 0 0 0 -0.031,-0.031 c -23.5527,-23.5466 -56.057,-42.4127 -90,-50.25 a 116.84021,116.84021 0 0 0 -0.031,0 c -22.192,-5.1183 -44.7576,-7.4043 -67.25,-7.4063 -12.1914,0 -24.5163,0.5748 -36.9376,1.4688 -9.6564,9e-4 -19.3491,0 -29,0 -6.0284,6e-4 -12.0807,-0.1775 -18.125,-0.4688 -5.2831,-6.9501 -10.6918,-13.8577 -16.25,-20.7187 -15.863,-22.1637 -35.6648,-41.1972 -57.3124,-56.1875 -39.2255,-27.1498 -81.5413,-33.9664 -119.25,-33.9688 -84.076,0 -167.3793,18.6917 -246.2188,53.875 l 0,-0.031 c -0.2302,0.1012 -0.4574,0.2111 -0.6875,0.3125 -0.021,0.01 -0.041,0.022 -0.062,0.031 -74.8746,32.9908 -145.5733,77.5776 -211.5938,132.5937 -65.7979,54.8325 -126.0844,118.5191 -180.7812,190.375 a 116.84021,116.84021 0 0 0 -0.6562,0.875 c -53.1066,71.1633 -99.3381,147.1763 -138.5626,227.6563 l -0.031,0 c -0.091,0.1843 -0.1591,0.3781 -0.25,0.5624 -39.3227,79.7984 -70.3683,162.16873 -92.8438,246.7188 -6.7712,25.47296 -12.4317,50.82326 -17.2187,76.09375 -1.5697,1.15082 -3.2217,2.45766 -4.7813,3.59375 -0.07,0.0511 -0.1486,0.10523 -0.2187,0.15625 -21.776,15.4197 -44.6098,30.94642 -68.4687,46.5625 -0.1228,0.0804 -0.2522,0.13837 -0.375,0.21875 -21.5252,13.76094 -42.8186,26.11409 -63.8126,37.03125 -19.286,10.02846 -36.924,17.67888 -52.7812,23.3125 -2.2336,-7.99302 -4.2459,-17.02841 -5.9062,-27.25 -2.2331,-20.00287 -3.4698,-41.74248 -3.4688,-65.28125 -9e-4,-17.33569 1.1345,-35.42706 3.5,-54.34375 a 116.84021,116.84021 0 0 0 0.062,-0.59375 c 2.6256,-21.88915 5.6601,-42.65748 9.0625,-62.40625 4.4603,-21.29761 8.8793,-40.67736 13.1875,-57.90625 3.9839,-15.9393 7.7459,-28.3862 10.7813,-37.0937 49.6485,-120.1551 100.6138,-235.9727 152.9687,-347.3438 54.7461,-116.4619 105.5302,-233.9436 152.3437,-352.4688 47.3906,-119.9914 88.7214,-242.9647 123.9688,-368.8437 a 116.84021,116.84021 0 0 0 0.062,-0.2187 c 36.1863,-130.2754 60.8087,-267.5822 74.0937,-411.6563 a 116.84021,116.84021 0 0 0 0.094,-1.2813 c 3.1653,-39.0599 4.8105,-77.3639 4.8125,-114.9062 -0,-61.6932 -4.8779,-121.887 -14.7813,-180.3438 -0.019,-0.1157 -0.043,-0.228 -0.062,-0.3437 -10.2458,-61.2808 -27.719,-118.1012 -54.1563,-169.375 l 0.031,0 c -0.176,-0.3606 -0.3856,-0.7025 -0.5626,-1.0625 -0.3467,-0.6684 -0.6501,-1.3648 -1,-2.0312 l -0.031,0.031 c -26.3005,-52.7837 -63.6199,-99.3961 -110.5625,-134.0312 l 0.031,-0.031 c -0.4108,-0.3111 -0.8376,-0.5976 -1.25,-0.9063 -0.1921,-0.1403 -0.3701,-0.2975 -0.5626,-0.4374 l 0,0.031 c -53.2505,-39.6438 -120.0851,-58.996 -185.9062,-59 -86.4043,0 -171.0438,28.2691 -245.3125,77.5 -0.3717,0.2464 -0.7538,0.4713 -1.125,0.7188 l 0.031,0.031 c -71.7344,46.846 -135.9382,109.7518 -193.9063,186.3125 -57.662,76.1584 -109.3902,164.2598 -156.1875,264.0937 a 116.84021,116.84021 0 0 0 -0.4375,0.9063 c -45.5982,99.4872 -85.0743,206.8858 -118.7187,322.0937 -33.6928,115.3709 -60.6266,236.3494 -80.875,362.9063 -15.2494,95.3053 -25.6156,191.4701 -31.1563,288.4063 -48.7707,10.4758 -96.1086,25.1221 -141.6563,44.1562 a 116.84021,116.84021 0 0 0 -0.031,0 c -73.7909,30.8392 -142.6598,70.1967 -205.875,117.75 l 0,-0.031 c -0.2938,0.2164 -0.5815,0.4394 -0.875,0.6562 -0.053,0.04 -0.103,0.085 -0.1562,0.125 -62.7383,46.3617 -119.2133,100.1111 -168.8126,160.5938 l -0.031,0 c -0.2233,0.2679 -0.4333,0.5443 -0.6562,0.8124 -49.0318,58.9562 -91.2096,122.5431 -126.1876,190.3126 a 116.84021,116.84021 0 0 0 -0.3437,0.6562 c -34.0747,67.0507 -60.5694,137.1672 -79.2813,209.8125 a 116.84021,116.84021 0 0 0 -0.3124,1.21875 c -17.7523,72.11929 -26.8439,144.67088 -26.8438,216.90625 0,1.54773 0.085,3.05016 0.094,4.59375 -2.6223,1.78237 -5.31,3.80099 -7.9063,5.5 -6.7802,4.30492 -13.0756,7.9196 -19.2813,11.4375 -3.4654,-19.67752 -5.813,-44.46575 -5.8124,-74.28125 -0,-31.49239 1.688,-67.06346 5.2187,-106.375 4.6713,-41.00215 10.258,-82.52684 16.8125,-124.6563 6.6233,-42.5853 13.7111,-84.1587 21.25,-124.7187 8.7208,-41.709 16.5504,-80.3404 23.4062,-115.5937 a 116.84021,116.84021 0 0 0 0,-0.031 c 6.8232,-35.0961 12.2463,-65.657 16.4376,-92.5937 5.2971,-27.5221 9.1531,-46.8995 9.1562,-74.6876 -0,-87.3802 -17.3064,-169.1558 -64.6562,-236.3124 -0.089,-0.1282 -0.1925,-0.247 -0.2813,-0.375 -0.2694,-0.381 -0.5099,-0.7763 -0.7813,-1.1563 l -0.031,0.031 c -46.3878,-66.0215 -129.8683,-110.4665 -210.75,-110.4688 -64.3789,0 -127.6444,13.3765 -184.5312,41.125 -66.5192,32.4499 -117.0387,87.7271 -156.2188,153.8438 a 116.84021,116.84021 0 0 0 -0.4062,0.6874 c -3.237,5.549 -9.2736,16.376 -13.5938,23.9688 -6.8501,-41.5577 -20.3607,-81.1669 -43.2812,-117.1875 -44.887,-70.5317 -131.9469,-102.4355 -208.4376,-102.4375 -75.0832,0 -152.4155,25.2248 -207.25,78.3438 a 116.84021,116.84021 0 0 0 -1.3437,1.3124 c -45.7994,45.801 -77.3923,104.9106 -92.5313,168.2188 a 116.84021,116.84021 0 0 0 -0.062,0.1875 c -14.3524,60.485 -28.8339,131.6513 -43.75,214.1875 -14.9814,82.8966 -28.4408,169.1064 -40.375,258.5938 -0.01,0.063 -0.023,0.1241 -0.031,0.1874 -4.7671,35.3645 -9.0335,70.42266 -13.125,105.3438 -20.828,17.71159 -43.5788,36.14168 -68.5937,55.375 -0.1032,0.0793 -0.2093,0.13941 -0.3126,0.21875 -50.6147,37.94048 -104.5344,73.32757 -161.875,106.09375 -55.7283,31.84456 -112.9425,58.20238 -171.875,79.3125 a 116.84021,116.84021 0 0 0 -0.5312,0.21875 c -8.0143,2.9143 -15.8389,5.5032 -23.5938,7.9375 76.5701,-45.10748 144.5342,-97.02185 202.5938,-156.15625 60.1588,-61.27313 108.8128,-128.43525 144.125,-201 l 0.031,0.031 c 0.176,-0.3518 0.3249,-0.7104 0.5,-1.0624 0.052,-0.1048 0.1043,-0.2078 0.1563,-0.3126 36.8115,-74.0923 57.0923,-153.009 57.0937,-232.5312 -0,-69.3042 -12.3964,-136.3476 -38.9687,-197.4688 a 116.84021,116.84021 0 0 0 -0.031,0 c -25.3433,-58.2849 -62.3471,-110.4449 -109.0312,-152.625 l 0.031,-0.031 c -0.4777,-0.4504 -0.9891,-0.8643 -1.4687,-1.3125 -0.363,-0.3249 -0.6983,-0.6763 -1.0625,-1 l -0.031,0.031 c -45.343,-42.0983 -99.1284,-74.6749 -158.1563,-96.8126 a 116.84021,116.84021 0 0 0 0,-0.031 c -60.8489,-22.8161 -126.1617,-33.8107 -193.375,-33.8125 -81.155,0 -159.3007,14.9874 -230.5937,46.0937 -0.052,0.022 -0.1047,0.04 -0.1563,0.063 -0.2481,0.1083 -0.502,0.2037 -0.75,0.3124 l 0,0.031 c -66.3445,28.5573 -127.263,68.1229 -181.1563,117.3125 -0.027,0.025 -0.066,0.037 -0.094,0.062 -52.0615,47.4493 -97.4581,102.7202 -135.8437,164.6563 -0.1496,0.2374 -0.2882,0.4811 -0.4376,0.7187 -0.02,0.032 -0.043,0.062 -0.062,0.094 -37.0635,58.9836 -68.1598,121.3355 -93.1876,186.625 a 116.84021,116.84021 0 0 0 -0.5937,1.5938 c -23.8265,64.982 -41.7547,131.7369 -53.6875,199.9688 -0.018,0.1046 -0.044,0.2078 -0.062,0.3124 -11.761,66.38378 -17.8751,130.71413 -17.875,192.9688 0,3.68984 0.2051,7.27124 0.25,10.9375 -2.2428,1.51171 -4.5951,3.14672 -6.8125,4.625 -24.8052,16.53666 -50.5987,33.14658 -77.3125,49.75 -25.7119,15.04474 -50.7867,28.66114 -75.1875,40.875 -13.2209,6.33207 -25.7789,11.6742 -37.75,16.28125 -2.0385,-6.59157 -4.0185,-13.52845 -5.9062,-20.90625 -2.9672,-15.79364 -4.5004,-31.96206 -4.5,-48.84375 l 0,-10.78125 c 2.259,-13.76154 5.0083,-27.92382 8.5312,-42.71875 4.6102,-19.36478 9.1209,-37.03025 13.5312,-52.90625 a 116.84021,116.84021 0 0 0 0.4063,-1.5625 c 4.1417,-15.73974 8.2302,-29.90278 12.1875,-42.75 4.3643,-11.39551 8.1425,-20.09765 10.125,-24.0625 44.1116,-86.28 91.136,-174.5586 141.0938,-264.875 0.064,-0.1151 0.1238,-0.2287 0.1874,-0.3437 52.0231,-93.2537 103.5144,-187.4591 154.5313,-282.625 a 116.84021,116.84021 0 0 0 0.2187,-0.4376 c 51.4372,-96.9395 100.9367,-194.4051 148.4376,-292.375 48.376,-99.7763 90.836,-199.3106 127.3437,-298.625 0.076,-0.2065 0.1429,-0.4184 0.2187,-0.625 37.7543,-101.1045 67.5999,-201.739 89.3126,-301.8124 0.047,-0.2191 0.1087,-0.4372 0.1562,-0.6563 0.016,-0.072 0.015,-0.1467 0.031,-0.2187 23.103,-103.1974 34.8736,-205.3483 34.875,-305.9688 -0,-46.3887 -3.841,-92.1257 -11.5,-137 -0.05,-0.3449 -0.1051,-0.6865 -0.1562,-1.0312 -0.125,-0.7267 -0.2167,-1.4614 -0.3438,-2.1876 l -0.031,0 c -7.5017,-49.2471 -21.3087,-96.1102 -42.7812,-139.0624 -23.2434,-46.4789 -58.1004,-87.6956 -101.0626,-117.4688 l 0.031,-0.062 c -0.6283,-0.4487 -1.2745,-0.8703 -1.9063,-1.3125 -0.1348,-0.094 -0.2712,-0.1871 -0.4062,-0.2812 -49.9757,-34.8345 -110.4623,-49.4649 -169.625,-49.4688 z m -213.6562,527.1562 c 0.1041,0.3334 0.4583,2.9167 0.5312,3.875 -0.4996,-2.2521 -0.6784,-3.7412 -0.5312,-3.875 z M 518,-2323.7812 c 69.61287,0 138.15351,3.2168 205.65625,9.6874 a 116.84021,116.84021 0 0 0 1.59375,0.1563 c 66.74292,5.4879 129.66551,14.5923 188.90625,27.1563 a 116.84021,116.84021 0 0 0 1.65625,0.3437 c 59.44169,11.7105 113.4535,26.4161 162,43.75 0.01,0 0.022,-0 0.031,0 47.505,16.9706 86.4327,36.1655 117.125,56.375 a 116.84021,116.84021 0 0 0 2.75,1.7813 c 29.7748,18.4342 48.2654,36.7019 59.9687,54 a 116.84021,116.84021 0 0 0 0.9063,1.3124 c 9.7958,14.057 12.6867,23.4779 12.6874,40.1563 -0,40.4329 -9.0008,75.3256 -29.2187,111.7187 a 116.84021,116.84021 0 0 0 -0.375,0.6563 c -19.3225,35.3124 -47.5059,67.4619 -89.2813,97.8437 a 116.84021,116.84021 0 0 0 -0.8124,0.5938 c -39.9185,29.5694 -91.7168,55.4319 -157.25005,75.6875 -0.0963,0.03 -0.18493,0.064 -0.28125,0.094 -62.36818,18.5955 -135.42398,28.6888 -219.71875,28.6876 -37.22631,0 -71.6095,-1.3464 -103.0625,-3.9688 l 0,0.031 c -38.50878,-4.2446 -79.66429,-6.311 -123.96875,-6.3124 -37.38164,0 -70.34073,2.2482 -104.4375,11.2187 a 116.84021,116.84021 0 0 0 -1.5625,0.4063 c -31.51773,8.7571 -64.62406,24.188 -92.34375,51.9062 a 116.84021,116.84021 0 0 0 -4.25,4.4688 c -25.26123,28.0692 -39.56138,62.706 -45.5625,94.7187 a 116.84021,116.84021 0 0 0 -0.96875,6.0937 c -2.89191,21.6818 -3.96976,43.9083 -3.96875,68.1563 -0.001,62.4279 17.32323,126.9243 57.1875,177.6563 a 116.84021,116.84021 0 0 0 1.3125,1.5937 c 32.18383,39.5018 72.80359,71.5617 118.34375,96.2813 a 116.84021,116.84021 0 0 0 3.46875,1.8124 c 43.25124,21.6277 90.27066,38.8676 140.8125,52.3438 a 116.84021,116.84021 0 0 0 0.59375,0.1562 c 44.4069,11.5858 89.27849,23.6236 134.59375,36.1563 a 116.84021,116.84021 0 0 0 2.8125,0.75 c 43.32866,10.8333 85.1269,23.4499 125.4375,37.7813 a 116.84021,116.84021 0 0 0 2.90625,0.9687 c 34.30607,11.1878 62.06837,25.5852 85.21875,42.7813 a 116.84021,116.84021 0 0 0 1.25,0.9374 c 21.83971,15.7745 38.08215,33.9008 51.62495,57.9063 a 116.84021,116.84021 0 0 0 0.6563,1.125 c 8.5659,14.7971 16.4676,40.213 16.4687,82.09375 -0,81.74002 -15.4132,143.75617 -41.49995,191.8125 a 116.84021,116.84021 0 0 0 -0.28125,0.53125 c -28.18056,52.55094 -63.92084,93.54065 -110.21875,127.25 -48.06182,34.0112 -103.41118,59.69964 -168.75,76.9375 -68.51642,17.07996 -139.18403,25.68766 -212.8125,25.6875 -60.54488,1.6e-4 -121.11315,-6.04107 -182.15625,-18.25 -44.6718,-8.93413 -86.86015,-19.19708 -126.875,-30.59375 -0.73855,-6.57518 -1.35773,-12.9889 -1.84375,-19.21875 -3.1e-4,-10.93297 -4.4e-4,-20.83742 0,-27.5 -5e-4,-47.76738 0.48366,-97.56017 1.4375,-149.3125 1.91987,-52.61274 4.28758,-105.19774 7.15625,-157.78125 2.90882,-53.33718 5.81087,-105.71675 8.71875,-157.09375 3.8001,-50.1975 8.08017,-97.4076 12.78125,-141.5938 a 116.84021,116.84021 0 0 0 0.0937,-1.1562 c 7.56503,-78.4916 17.51927,-159.0671 29.84375,-241.6875 0.008,-0.053 0.0228,-0.1036 0.0312,-0.1563 13.07075,-81.1952 29.8313,-160.3487 50.28125,-237.5 a 116.84021,116.84021 0 0 0 0.0937,-0.3437 c 20.14708,-76.9261 44.74518,-149.7064 73.71875,-218.5313 0.0127,-0.03 0.0185,-0.063 0.0312,-0.094 28.84035,-66.1907 62.8068,-125.2592 101.84375,-177.875 a 116.84021,116.84021 0 0 0 6.46875,-129.5625 c -17.23724,-28.8448 -37.93432,-55.404 -61.21875,-78.8438 31.29645,-1.3079 62.68286,-2.1867 94.25,-2.1874 z m 6948.2812,687.25 c 0.7205,0.3142 0.1519,-0.3534 0,0 z M 1512.75,-1505.1875 c -6.2336,38.6552 -11.7009,77.0113 -16.4062,115 l -0.031,0 c -3.9294,31.4348 -7.2201,62.2039 -10,92.4687 -19.3799,-29.2408 -41.088,-56.8909 -65.25,-82.5937 l 0.031,-0.031 c -0.1903,-0.2054 -0.4032,-0.3885 -0.5938,-0.5937 -0.055,-0.06 -0.101,-0.1281 -0.1562,-0.1875 -18.0668,-19.4384 -37.5791,-37.4606 -58.125,-54.3438 53.9554,-20.3923 104.2981,-43.4677 150.5312,-69.7187 z m 4014.5,175.5937 c 0,0.047 0.053,1.0803 0.062,1.1876 -0.1617,-1.2205 -0.08,-1.3607 -0.062,-1.1876 z m -2505.2188,84.8126 c 1.5057,7.6742 2.6561,17.3161 2.6563,30.25 0,0.82 0.1634,8.3026 -13.9063,27.4374 -17.5362,23.8493 -40.0456,47.0959 -68.75,69.5938 a 116.84021,116.84021 0 0 0 -1.2187,0.9688 c -7.1626,5.7699 -14.5188,11.2312 -22.0313,16.4687 4.6681,-17.9069 10.2239,-35.6672 16.8126,-53.3437 8.7395,-21.996 18.905,-39.4231 30.2187,-53.6563 0.043,-0.053 0.082,-0.1034 0.125,-0.1563 10.5257,-12.9938 22.2363,-22.7095 37.9063,-31.1874 4.7527,-2.401 10.774,-4.5958 18.1874,-6.375 z m 4118.0938,97.0624 -39.25,189.25005 a 116.84021,116.84021 0 0 0 -1.5312,9.21875 c -2.7158,21.72196 -10.0357,55.91043 -22.5938,98.96875 a 116.84021,116.84021 0 0 0 -0.625,2.1875 c -10.7514,39.69542 -25.1847,78.0374 -43.4688,115.4375 -17.0973,34.97097 -36.0833,62.54071 -56.4062,84.21875 -1.501,1.60101 -2.1947,2.27855 -3.3125,3.4375 -1.4412,-4.55825 -2.7258,-9.67026 -3.8125,-15.28125 -2.1014,-17.64301 -3.2191,-35.83931 -3.2188,-54.75 -3e-4,-32.99505 4.1211,-70.22503 13.1563,-111.59375 10.1069,-41.81892 23.9635,-83.44652 41.8125,-125.09375 a 116.84021,116.84021 0 0 0 0.3438,-0.78125 c 17.9128,-42.65006 39.1079,-82.936 63.7187,-121.125 17.6333,-27.362 36.0834,-51.9303 55.1875,-74.0938 z m -1607.3125,27.25 c 0.8806,35.1254 3.6067,140.49939 2.6875,105.375 1.2882,55.0338 6.1114,130.04882 4.625,104.2188 1.033,15.50171 2.0652,29.06275 3.4688,41.875 -17.0435,39.6481 -35.124,75.24112 -54.0938,106.40625 a 116.84021,116.84021 0 0 0 -0.4062,0.625 c -9.0945,15.15679 -19.3743,30.07785 -31.0313,44.84375 a 116.84021,116.84021 0 0 0 -0.5313,0.6875 c -9.6247,12.3743 -19.7396,23.41875 -30.2812,33.4375 -8.0675,6.85733 -15.7486,11.93681 -23.5,15.8125 a 116.84021,116.84021 0 0 0 -1.4375,0.75 c -21.2729,-0.2973 -32.5086,-3.95279 -32.75,-4.0625 -3.3569,-1.52577 -4.6481,-2.38009 -5.2813,-2.8125 -1.5511,-2.191 -2.697,-4.58246 -3.6874,-7.84375 -2.0142,-11.05399 -3.094,-21.78816 -3.0938,-32.40625 -3e-4,-34.79481 6.4822,-79.01924 21.7188,-131.5 14.8757,-51.23922 36.555,-102.83258 65.5937,-155.0625 24.4694,-42.5671 53.6952,-82.5619 88,-120.3438 z"
             inkscape:href="#text4098"
             id="path4601"
             style="font-size:500px;font-style:normal;font-variant:normal;font-weight:normal;font-stretch:normal;line-height:125%;letter-spacing:0px;word-spacing:0px;fill:#00000f;fill-opacity:0.94117647;stroke:#000000;stroke-width:0;stroke-miterlimit:4;stroke-opacity:1;stroke-dasharray:none;font-family:Pacifico;-inkscape-font-specification:Pacifico"
             xlink:href="#text4098"
             inkscape:original="M 2517.5 -3052.9062 C 2455.9756 -3052.9034 2395.4444 -3034.3566 2335.875 -2997.25 C 2276.3039 -2960.1379 2219.1867 -2908.8645 2164.5 -2843.4375 C 2109.8118 -2778.9818 2057.5541 -2702.8257 2007.75 -2614.9375 C 1957.9448 -2528.0211 1911.562 -2434.2712 1868.5938 -2333.6875 C 1828.0476 -2236.5643 1791.2306 -2135.2511 1757.9688 -2029.9375 C 1761.2712 -2053.4575 1763.1243 -2077.0666 1763.125 -2100.7812 C 1763.1228 -2164.2559 1744.0838 -2225.2793 1706 -2283.875 C 1668.8885 -2342.4666 1617.1229 -2396.6619 1550.7188 -2446.4688 C 1485.2871 -2497.2477 1408.1466 -2543.1383 1319.2812 -2584.1562 C 1230.4124 -2626.1461 1134.6937 -2661.7945 1032.1562 -2691.0938 C 929.61582 -2720.3881 822.70186 -2742.8725 711.375 -2758.5 C 600.04583 -2775.099 489.19438 -2783.3725 378.84375 -2783.375 C 284.11646 -2783.3725 191.84312 -2777.0365 102 -2764.3438 C 12.155798 -2751.6459 -73.320679 -2731.6225 -154.375 -2704.2812 C -234.45333 -2677.9116 -308.67201 -2643.7398 -377.03125 -2601.75 C -444.41406 -2560.7321 -502.51556 -2510.443 -551.34375 -2450.875 C -601.14828 -2392.2791 -639.71855 -2324.8885 -667.0625 -2248.7188 C -694.406 -2172.5449 -708.06223 -2086.6075 -708.0625 -1990.9062 C -708.06223 -1892.2718 -686.5935 -1842.9671 -643.625 -1842.9688 C -612.37483 -1842.9671 -571.83581 -1871.7562 -522.03125 -1929.375 C -472.22653 -1986.9904 -415.60159 -2073.42 -352.125 -2188.6562 C -320.87512 -2230.6464 -275.44548 -2267.2792 -215.875 -2298.5312 C -155.32841 -2330.7557 -86.492541 -2357.1151 -9.34375 -2377.625 C 68.780741 -2399.1072 152.78066 -2414.7322 242.625 -2424.5 C 333.44454 -2435.24 425.2257 -2440.6228 518 -2440.625 C 591.24116 -2440.6228 663.52233 -2437.2087 734.8125 -2430.375 C 806.10032 -2424.5134 873.95181 -2414.7322 938.40625 -2401.0625 C 1002.8579 -2388.365 1062.436 -2372.2479 1117.125 -2352.7188 C 1171.8109 -2333.1854 1219.178 -2310.2401 1259.2188 -2283.875 C 1300.2326 -2258.4824 1331.9748 -2229.2011 1354.4375 -2196 C 1376.8966 -2163.7715 1388.1232 -2128.1231 1388.125 -2089.0625 C 1388.1232 -2029.4904 1373.4826 -1973.3264 1344.1875 -1920.5938 C 1315.8654 -1868.8343 1274.8342 -1823.4359 1221.125 -1784.375 C 1168.389 -1745.311 1103.9516 -1714.061 1027.7812 -1690.625 C 952.58454 -1668.1626 868.09244 -1656.9361 774.34375 -1656.9375 C 734.30351 -1656.9361 696.71761 -1658.3814 661.5625 -1661.3125 C 627.38175 -1665.2173 589.30366 -1667.1861 547.3125 -1667.1875 C 516.06154 -1667.1861 491.14751 -1664.7251 472.59375 -1659.8438 C 455.01473 -1654.9595 441.32724 -1647.6392 431.5625 -1637.875 C 422.77257 -1628.108 416.92883 -1615.4049 414 -1599.7812 C 412.04602 -1585.1315 411.06165 -1567.569 411.0625 -1547.0625 C 411.06165 -1504.0925 421.79601 -1468.9363 443.28125 -1441.5938 C 464.76472 -1415.2254 492.60063 -1392.7723 526.78125 -1374.2188 C 561.9365 -1356.6395 601.49115 -1341.9676 645.4375 -1330.25 C 690.35824 -1318.5302 735.78789 -1306.3505 781.6875 -1293.6562 C 828.56123 -1281.9365 873.95962 -1268.249 917.90625 -1252.625 C 962.82672 -1237.9756 1002.3814 -1217.9521 1036.5625 -1192.5625 C 1071.7172 -1167.1709 1100.0453 -1135.4288 1121.5312 -1097.3438 C 1143.014 -1060.2336 1153.7484 -1013.3586 1153.75 -956.71875 C 1153.7484 -860.03844 1135.2015 -777.51509 1098.0938 -709.15625 C 1061.9594 -641.77304 1013.6079 -586.13247 953.0625 -542.1875 C 892.51429 -499.21849 823.18624 -467.47634 745.0625 -446.96875 C 666.93639 -427.43731 586.35054 -417.65607 503.34375 -417.65625 C 434.9835 -417.65607 366.63982 -424.51544 298.28125 -438.1875 C 229.92121 -451.85916 165.94471 -468.43727 106.375 -487.96875 C 98.561961 -493.82787 92.718217 -502.62474 88.8125 -514.34375 C 84.905725 -527.03878 81.952603 -540.72626 80 -555.375 C 78.046357 -570.02311 76.601046 -584.17153 75.625 -597.84375 C 75.624484 -611.51525 75.624484 -622.24962 75.625 -630.0625 C 75.624484 -678.89019 76.116671 -729.67139 77.09375 -782.40625 C 79.046356 -836.11659 81.476041 -889.81966 84.40625 -943.53125 C 87.33541 -997.24143 90.257282 -1049.9914 93.1875 -1101.75 C 97.093213 -1153.5069 101.49165 -1202.3194 106.375 -1248.2188 C 114.18695 -1329.2723 124.46037 -1412.2879 137.15625 -1497.25 C 150.82753 -1582.2096 168.39002 -1665.2251 189.875 -1746.2812 C 211.35872 -1828.3109 237.71807 -1906.4358 268.96875 -1980.6562 C 301.19457 -2054.8732 339.76485 -2122.2637 384.6875 -2182.8125 C 336.83516 -2262.8886 277.28835 -2302.9042 206 -2302.9062 C 149.35879 -2302.9042 86.366661 -2279.0058 17.03125 -2231.1562 C -62.07069 -2114.9434 -125.555 -1983.0842 -173.40625 -1835.625 C -221.25803 -1689.1392 -257.89081 -1534.8581 -283.28125 -1372.75 C -308.67201 -1210.6397 -325.7423 -1044.6086 -334.53125 -874.6875 C -342.34385 -704.76516 -346.25009 -538.76533 -346.25 -376.65625 C -346.25009 -341.4999 -336.00792 -317.07805 -315.5 -303.40625 C -294.01577 -289.73433 -269.59392 -279.49215 -242.25 -272.65625 C -180.72682 -250.1953 -115.30501 -229.18751 -45.96875 -209.65625 C 23.366724 -190.12505 93.679154 -173.51569 164.96875 -159.84375 C 237.2337 -145.19541 308.5305 -133.96886 378.84375 -126.15625 C 449.15536 -117.36731 516.05373 -112.96888 579.53125 -112.96875 C 680.11607 -112.96888 772.38941 -124.19543 856.375 -146.65625 C 940.35799 -168.1407 1015.561 -197.94535 1081.9688 -236.03125 C 1149.35 -274.11715 1207.9437 -318.53117 1257.75 -369.3125 C 1307.5529 -421.07013 1349.0451 -476.24976 1382.25 -534.84375 C 1415.4513 -593.43715 1440.3653 -654.49177 1456.9688 -717.96875 C 1473.5684 -781.44477 1481.8731 -843.94471 1481.875 -905.46875 C 1481.8731 -980.66332 1469.6622 -1052.4211 1445.25 -1120.7812 C 1420.8341 -1189.1397 1384.2013 -1249.2099 1335.375 -1300.9688 C 1286.5451 -1353.702 1226.014 -1395.1942 1153.75 -1425.4688 C 1081.4829 -1456.7175 996.99075 -1472.3425 900.3125 -1472.3438 C 1052.6548 -1475.2722 1183.0374 -1495.7878 1291.4375 -1533.875 C 1400.8107 -1571.9596 1490.1621 -1620.3111 1559.5 -1678.9062 C 1629.8104 -1738.4751 1681.0838 -1804.8812 1713.3125 -1878.125 C 1714.1509 -1879.9744 1714.8391 -1881.8369 1715.6562 -1883.6875 C 1698.2764 -1819.6568 1682.2515 -1755.7862 1667.9062 -1692.0938 C 1643.492 -1583.694 1624.9451 -1478.2253 1612.25 -1375.6875 C 1599.5545 -1274.124 1593.1874 -1179.8819 1593.1875 -1092.9688 C 1593.1874 -979.68676 1602.4764 -871.26499 1621.0312 -767.75 C 1640.5623 -665.21051 1666.9217 -574.90592 1700.125 -496.78125 C 1734.3044 -418.65607 1773.8591 -356.15613 1818.7812 -309.28125 C 1864.6793 -263.38279 1913.9839 -240.40625 1966.7188 -240.40625 C 1999.9213 -240.40625 2035.5697 -244.80468 2073.6562 -253.59375 C 2111.7415 -263.35935 2150.804 -276.06246 2190.8438 -291.6875 C 2230.882 -307.31243 2270.4367 -324.90617 2309.5 -344.4375 C 2349.5382 -364.94519 2388.1084 -385.42954 2425.2188 -405.9375 C 2460.5008 -426.21468 2496.0058 -447.95871 2531.625 -470.59375 C 2542.2565 -454.32999 2553.6188 -438.61725 2565.8438 -423.53125 C 2611.7419 -367.86706 2668.8903 -323.42179 2737.25 -290.21875 C 2806.5854 -257.01561 2887.14 -240.40625 2978.9375 -240.40625 C 3037.5305 -240.40625 3095.1398 -246.77343 3151.7812 -259.46875 C 3209.3975 -273.14059 3264.5772 -290.70307 3317.3125 -312.1875 C 3371.0224 -334.64834 3421.8036 -360.05457 3469.6562 -388.375 C 3518.4832 -416.69514 3563.9128 -445.48417 3605.9062 -474.78125 C 3617.0859 -482.68615 3628.1827 -490.75836 3639.2188 -498.9375 C 3640.1645 -476.40823 3641.6684 -454.16437 3643.9688 -432.3125 C 3648.8514 -396.17953 3657.6482 -363.453 3670.3438 -334.15625 C 3684.0154 -305.83587 3703.0544 -282.89058 3727.4688 -265.3125 C 3751.8825 -248.71093 3784.1169 -240.40625 3824.1562 -240.40625 C 3856.3824 -240.40625 3884.7105 -247.75781 3909.125 -262.40625 C 3933.5386 -277.05465 3955.4995 -304.39837 3975.0312 -344.4375 L 4358.8125 -1106.1562 L 4382.25 -1106.1562 C 4370.5303 -1028.0305 4360.7803 -954.76491 4352.9688 -886.40625 C 4345.1554 -819.02286 4341.2491 -756.03073 4341.25 -697.4375 C 4341.2491 -548.02313 4359.3038 -434.28106 4395.4375 -356.15625 C 4432.5459 -279.00777 4477.9755 -240.40625 4531.6875 -240.40625 C 4585.3973 -240.40625 4636.6394 -247.75781 4685.4688 -262.40625 C 4734.2956 -278.03121 4781.1705 -297.56244 4826.0938 -321 C 4871.0142 -345.41396 4913.9829 -372.75768 4955 -403.03125 C 4958.8871 -405.83369 4962.6608 -408.63505 4966.5312 -411.4375 C 4970.8368 -404.10889 4975.2549 -396.89571 4979.9062 -389.84375 C 5011.156 -344.92177 5049.7263 -308.78118 5095.625 -281.4375 C 5142.4997 -254.09374 5197.6793 -240.40625 5261.1562 -240.40625 C 5306.0776 -240.40625 5350.5229 -247.26562 5394.4688 -260.9375 C 5439.39 -275.5859 5483.3431 -294.62495 5526.3125 -318.0625 C 5570.2571 -341.4999 5612.2414 -368.84362 5652.2812 -400.09375 C 5693.296 -432.32012 5731.8663 -465.99977 5768 -501.15625 C 5791.4365 -444.51542 5818.7802 -399.11703 5850.0312 -364.9375 C 5882.2567 -330.75772 5913.9989 -304.39837 5945.25 -285.84375 C 5977.4754 -268.2656 6006.7566 -256.54686 6033.125 -250.6875 C 6060.4675 -244.82812 6080.9831 -241.875 6094.6562 -241.875 C 6119.069 -241.875 6145.4284 -245.78124 6173.75 -253.59375 C 6203.0455 -262.38279 6232.8501 -273.1484 6263.125 -285.84375 C 6293.397 -299.51557 6324.1547 -314.64836 6355.4062 -331.25 C 6386.6547 -348.82802 6416.4281 -366.3905 6444.75 -383.96875 C 6471.0419 -400.35392 6497.5352 -417.89305 6524.125 -436.0625 C 6541.5645 -402.77599 6562.4274 -373.15509 6586.8438 -347.34375 C 6621.0232 -312.18743 6660.0857 -284.84371 6704.0312 -265.3125 C 6748.9528 -246.75781 6794.8433 -237.5 6841.7188 -237.5 C 6885.6636 -237.5 6929.6166 -244.82031 6973.5625 -259.46875 C 7017.5072 -274.11715 7059.4915 -292.66401 7099.5312 -315.125 C 7140.5461 -338.5624 7178.1633 -364.42956 7212.3438 -392.75 C 7246.5226 -421.07013 7275.3116 -448.90604 7298.75 -476.25 C 7329.9991 -397.14828 7367.124 -336.61709 7410.0938 -294.625 C 7453.0614 -253.60936 7506.7645 -233.09376 7571.2188 -233.09375 C 7624.9284 -233.09376 7678.6315 -246.28906 7732.3438 -272.65625 C 7786.0533 -299.02338 7836.3735 -331.22647 7883.25 -369.3125 C 7930.1235 -407.39827 7972.1078 -447.44511 8009.2188 -489.4375 C 8047.303 -531.4294 8077.5686 -568.06217 8100.0312 -599.3125 L 8029.7188 -924.5 C 7980.889 -858.09313 7932.5375 -798.51507 7884.6875 -745.78125 C 7864.1782 -723.31983 7842.2173 -701.35891 7818.7812 -679.875 C 7796.3189 -659.36677 7773.3736 -640.81991 7749.9375 -624.21875 C 7727.4752 -607.61682 7705.0221 -593.92933 7682.5625 -583.1875 C 7660.1003 -573.42154 7638.6003 -568.53092 7618.0938 -568.53125 C 7590.7488 -568.53092 7572.6941 -581.23403 7563.9062 -606.625 C 7556.0926 -632.99179 7552.1863 -669.13238 7552.1875 -715.03125 C 7552.1863 -768.74166 7557.0769 -825.3666 7566.8438 -884.9375 C 7576.6082 -945.48367 7587.3425 -1005.5539 7599.0625 -1065.125 C 7610.78 -1125.671 7621.5144 -1184.2647 7631.2812 -1240.9062 C 7641.0456 -1298.5224 7645.9362 -1350.7801 7645.9375 -1397.6562 C 7645.9362 -1427.9285 7643.0144 -1451.8582 7637.1562 -1469.4375 C 7632.2722 -1487.0144 7624.9206 -1500.6706 7615.1562 -1510.4375 C 7605.3894 -1520.2018 7594.1628 -1526.5378 7581.4688 -1529.4688 C 7568.7722 -1532.3971 7555.116 -1533.8737 7540.4688 -1533.875 C 7529.7254 -1533.8737 7518.4989 -1533.3815 7506.7812 -1532.4062 C 7496.0379 -1532.405 7485.2723 -1532.405 7474.5312 -1532.4062 C 7461.8349 -1532.405 7449.163 -1532.8971 7436.4688 -1533.875 C 7424.749 -1535.8268 7413.0302 -1539.2409 7401.3125 -1544.125 C 7389.5927 -1549.0065 7379.8115 -1556.819 7372 -1567.5625 C 7364.1865 -1578.3033 7355.8818 -1589.0377 7347.0938 -1599.7812 C 7339.2803 -1611.4986 7329.0381 -1621.7721 7316.3438 -1630.5625 C 7303.6475 -1639.3502 7286.0538 -1643.7486 7263.5938 -1643.75 C 7196.2101 -1643.7486 7129.8039 -1629.0767 7064.375 -1599.7812 C 6999.9213 -1571.4596 6938.4057 -1532.8893 6879.8125 -1484.0625 C 6821.2183 -1435.2332 6767.0231 -1378.116 6717.2188 -1312.6875 C 6668.3903 -1247.2568 6625.9138 -1177.4366 6589.7812 -1103.2188 C 6553.6483 -1029.9758 6525.3202 -954.77272 6504.8125 -877.625 C 6494.7938 -839.93549 6487.2805 -802.72572 6482.1562 -765.96875 C 6467.0859 -754.46947 6452.1416 -743.28782 6437.4375 -732.59375 C 6413.9984 -715.99171 6389.5765 -699.4136 6364.1875 -682.8125 C 6339.7719 -667.18707 6315.3501 -653.0074 6290.9375 -640.3125 C 6266.522 -627.6168 6243.0845 -617.37462 6220.625 -609.5625 C 6199.1392 -602.7262 6179.1471 -599.31214 6160.5938 -599.3125 C 6141.0612 -599.31214 6124.4518 -605.15589 6110.7812 -616.875 C 6098.0846 -628.59336 6087.8112 -644.21835 6080 -663.75 C 6072.1862 -684.25737 6066.3425 -707.20266 6062.4375 -732.59375 C 6059.5066 -757.98386 6058.03 -784.86664 6058.0312 -813.1875 C 6058.03 -835.64784 6059.5066 -858.59313 6062.4375 -882.03125 C 6065.3659 -906.44465 6068.78 -929.88212 6072.6875 -952.34375 C 6077.569 -975.78051 6082.4597 -997.24924 6087.3438 -1016.7812 C 6092.2253 -1036.3117 6097.1159 -1052.9211 6102 -1066.5938 C 6152.7799 -1189.6397 6205.0064 -1308.3036 6258.7188 -1422.5625 C 6312.4282 -1536.819 6362.225 -1652.0377 6408.125 -1768.25 C 6454.0218 -1884.4593 6494.0686 -2003.6154 6528.25 -2125.6875 C 6562.4279 -2248.7324 6585.8654 -2379.0838 6598.5625 -2516.7812 C 6601.4904 -2552.9117 6602.967 -2588.068 6602.9688 -2622.25 C 6602.967 -2677.9116 6598.5685 -2731.6147 6589.7812 -2783.375 C 6580.9904 -2836.1068 6566.3498 -2882.0286 6545.8438 -2921.0938 C 6526.3108 -2961.1301 6500.4124 -2992.8722 6468.1875 -3016.3125 C 6435.9593 -3040.7238 6396.8969 -3052.9034 6351 -3052.9062 C 6288.4985 -3052.9034 6227.9673 -3033.3722 6169.375 -2994.3125 C 6110.7799 -2956.2238 6055.6003 -2903.013 6003.8438 -2834.6562 C 5952.0848 -2766.2943 5904.2255 -2685.2476 5860.2812 -2591.5 C 5817.3115 -2497.7477 5779.7256 -2395.6932 5747.5 -2285.3438 C 5715.2725 -2174.9903 5689.3741 -2058.7872 5669.8438 -1936.7188 C 5650.3117 -1814.6469 5639.0851 -1691.0923 5636.1562 -1566.0938 C 5561.9367 -1559.2565 5492.1165 -1542.1862 5426.6875 -1514.8438 C 5361.2573 -1487.4988 5300.7261 -1452.8347 5245.0625 -1410.8438 C 5189.3981 -1369.827 5139.57 -1322.4599 5095.625 -1268.75 C 5051.6794 -1216.0146 5014.0935 -1159.3585 4982.8438 -1098.8125 C 4952.5702 -1039.2414 4929.1327 -977.23364 4912.5312 -912.78125 C 4896.9062 -849.30408 4889.0937 -786.31195 4889.0938 -723.8125 C 4889.0937 -703.16599 4890.0066 -682.769 4891.6562 -662.5625 C 4870.2964 -645.10033 4848.9198 -629.33545 4827.5625 -615.40625 C 4806.0768 -601.73401 4785.5924 -590.50746 4766.0625 -581.71875 C 4747.5065 -572.92935 4730.8972 -568.53092 4716.25 -568.53125 C 4684.0222 -568.53092 4660.0925 -588.06215 4644.4688 -627.125 C 4629.8191 -666.18707 4622.4988 -716.01515 4622.5 -776.5625 C 4622.4988 -812.69474 4624.4363 -852.24939 4628.3438 -895.21875 C 4633.2254 -938.1868 4639.1004 -981.61645 4645.9375 -1025.5625 C 4652.7722 -1069.507 4660.0925 -1112.4757 4667.9062 -1154.4688 C 4676.6941 -1196.46 4684.5066 -1235.0615 4691.3438 -1270.2188 C 4698.1784 -1305.3739 4703.5612 -1335.6395 4707.4688 -1361.0312 C 4712.3503 -1386.4207 4714.78 -1404.4754 4714.7812 -1415.2188 C 4714.78 -1487.4831 4700.1394 -1544.1393 4670.8438 -1585.1562 C 4642.5222 -1626.1705 4603.952 -1646.6548 4555.125 -1646.6562 C 4506.2958 -1646.6548 4461.8506 -1636.9049 4421.8125 -1617.375 C 4381.7725 -1597.8424 4346.1241 -1561.7018 4314.875 -1508.9688 C 4308.0382 -1497.2487 4297.796 -1479.1941 4284.125 -1454.7812 C 4270.4523 -1430.366 4255.3195 -1402.0379 4238.7188 -1369.8125 C 4222.1164 -1338.5614 4204.0305 -1305.3739 4184.5 -1270.2188 C 4165.9446 -1236.0381 4148.3821 -1203.3115 4131.7812 -1172.0625 C 4115.179 -1140.8116 4100.5072 -1112.9757 4087.8125 -1088.5625 C 4075.1166 -1065.1242 4065.8588 -1048.0226 4060 -1037.2812 L 4030.6875 -1037.2812 C 4030.6869 -1044.1164 4032.1635 -1057.3117 4035.0938 -1076.8438 C 4038.0229 -1097.3507 4041.4369 -1120.7882 4045.3438 -1147.1562 C 4050.226 -1174.4991 4055.1166 -1203.8115 4060 -1235.0625 C 4064.8822 -1267.288 4069.2806 -1298.0458 4073.1875 -1327.3438 C 4078.0697 -1357.6161 4081.9759 -1384.9598 4084.9062 -1409.375 C 4087.8353 -1434.7644 4089.2806 -1454.7878 4089.2812 -1469.4375 C 4089.2806 -1523.1472 4079.0384 -1566.1159 4058.5312 -1598.3438 C 4038.0229 -1630.5689 4001.3901 -1646.6548 3948.6562 -1646.6562 C 3895.9214 -1646.6548 3853.9371 -1631.522 3822.6875 -1601.25 C 3792.4137 -1570.9752 3771.8981 -1533.3893 3761.1562 -1488.4688 C 3747.4841 -1430.8504 3733.3357 -1361.5223 3718.6875 -1280.4688 C 3704.0388 -1199.4131 3690.8435 -1114.921 3679.125 -1027.0312 C 3672.4224 -977.3206 3666.4559 -927.97752 3661.0312 -878.90625 C 3629.2779 -850.07037 3592.8411 -819.88168 3551.6875 -788.28125 C 3496.9988 -747.26512 3438.8973 -709.15578 3377.375 -674 C 3315.8505 -638.84335 3252.3662 -609.56213 3186.9375 -586.125 C 3122.4835 -562.68718 3060.968 -550.96844 3002.375 -550.96875 C 2983.8196 -550.96844 2966.2571 -552.90594 2949.6562 -556.8125 C 2934.0306 -560.71843 2918.8666 -567.5778 2904.2188 -577.34375 C 2889.5697 -587.10903 2874.9291 -600.76526 2860.2812 -618.34375 C 2846.6088 -635.92148 2832.4604 -657.91365 2817.8125 -684.28125 C 2902.7728 -707.71828 2981.3899 -740.41356 3053.6562 -782.40625 C 3126.8976 -824.39785 3189.8897 -872.25718 3242.625 -925.96875 C 3295.3584 -979.67895 3336.3583 -1036.7961 3365.6562 -1097.3438 C 3395.9286 -1157.8897 3411.0614 -1218.4521 3411.0625 -1279 C 3411.0614 -1334.663 3401.3114 -1384.952 3381.7812 -1429.875 C 3362.2489 -1474.7956 3334.9052 -1512.8737 3299.75 -1544.125 C 3265.5693 -1576.3502 3225.0303 -1601.2643 3178.1562 -1618.8438 C 3131.2804 -1636.4205 3080.4992 -1645.2173 3025.8125 -1645.2188 C 2958.429 -1645.2173 2896.9135 -1633.0064 2841.25 -1608.5938 C 2786.562 -1585.1549 2736.7652 -1552.9206 2691.8438 -1511.9062 C 2647.8981 -1471.866 2609.2966 -1424.991 2576.0938 -1371.2812 C 2542.8904 -1318.5458 2515.0857 -1262.874 2492.625 -1204.2812 C 2471.1405 -1145.6866 2455.0233 -1085.6476 2444.2812 -1024.125 C 2433.5389 -963.5774 2428.1561 -905.93683 2428.1562 -851.25 C 2428.1562 -827.57288 2429.2397 -804.21872 2431.1562 -781.125 C 2410.3461 -766.30596 2389.7421 -751.92184 2369.5625 -738.46875 C 2343.1944 -720.89014 2315.8507 -703.29641 2287.5312 -685.71875 C 2259.2101 -669.11676 2231.3742 -653.98396 2204.0312 -640.3125 C 2177.6633 -627.6168 2152.2884 -617.37462 2127.875 -609.5625 C 2104.4368 -601.74964 2083.4291 -597.84339 2064.875 -597.84375 C 2057.0619 -597.84339 2048.7572 -603.2262 2039.9688 -613.96875 C 2031.1791 -625.68711 2022.8744 -640.81991 2015.0625 -659.375 C 2007.2494 -678.90581 2000.4213 -700.37454 1994.5625 -723.8125 C 1989.6792 -748.22605 1987.2495 -773.14009 1987.25 -798.53125 L 1987.25 -819.03125 C 1990.1791 -838.5619 1994.0854 -858.58532 1998.9688 -879.09375 C 2003.851 -899.6009 2008.7104 -918.63995 2013.5938 -936.21875 C 2018.476 -954.77272 2023.3666 -971.87427 2028.25 -987.5 C 2034.1088 -1003.1242 2039.4916 -1015.7961 2044.375 -1025.5625 C 2089.2962 -1113.4523 2137.1556 -1203.2959 2187.9375 -1295.0938 C 2239.6945 -1387.866 2290.9367 -1481.6159 2341.7188 -1576.3438 C 2392.4991 -1672.0454 2441.3428 -1768.2563 2488.2188 -1864.9375 C 2535.0927 -1961.6155 2576.0926 -2057.7951 2611.25 -2153.5 C 2647.3816 -2250.1777 2675.7097 -2345.8963 2696.2188 -2440.625 C 2717.7019 -2536.3258 2728.4362 -2630.0757 2728.4375 -2721.875 C 2728.4362 -2762.8881 2725.0222 -2802.9037 2718.1875 -2841.9688 C 2712.3269 -2882.0052 2701.5925 -2917.6536 2685.9688 -2948.9062 C 2670.3425 -2980.1535 2648.8738 -3005.0675 2621.5312 -3023.625 C 2594.1864 -3043.1534 2559.4911 -3052.9034 2517.5 -3052.9062 z M 6285.0938 -2713.0625 C 6302.6704 -2713.06 6315.8657 -2702.8179 6324.6562 -2682.3125 C 6334.4204 -2661.8023 6339.2797 -2625.1695 6339.2812 -2572.4375 C 6339.2797 -2532.3961 6336.3578 -2478.2009 6330.5 -2409.8438 C 6325.6157 -2358.0838 6316.8188 -2303.3964 6304.125 -2245.7812 C 6292.4048 -2188.1621 6278.2563 -2129.5684 6261.6562 -2070 C 6245.0533 -2010.4279 6226.5064 -1950.8811 6206 -1891.3125 C 6186.4674 -1832.7172 6166.9361 -1776.5532 6147.4062 -1722.8438 C 6100.53 -1596.8658 6049.2566 -1470.3894 5993.5938 -1343.4375 L 5993.5938 -1358.0938 C 5993.5926 -1372.7411 5993.5926 -1393.7488 5993.5938 -1421.0938 C 5993.5926 -1448.4363 5994.0848 -1480.1784 5995.0625 -1516.3125 C 5996.0379 -1553.4206 5997.4832 -1593.9283 5999.4375 -1637.875 C 6002.366 -1682.7954 6005.7801 -1729.1782 6009.6875 -1777.0312 C 6011.6394 -1800.4672 6015.5457 -1840.0218 6021.4062 -1895.6875 C 6027.2644 -1951.3499 6035.0769 -2013.8498 6044.8438 -2083.1875 C 6054.6081 -2152.5215 6066.8191 -2224.3105 6081.4688 -2298.5312 C 6096.1159 -2372.7479 6113.2174 -2440.5994 6132.75 -2502.125 C 6152.2799 -2563.6461 6174.733 -2613.9664 6200.125 -2653.0312 C 6225.5142 -2693.0679 6253.8423 -2713.06 6285.0938 -2713.0625 z M 2407.6562 -2677.9062 C 2415.4678 -2677.9038 2419.8662 -2667.6616 2420.8438 -2647.1562 C 2422.7959 -2627.6226 2423.749 -2603.6929 2423.75 -2575.375 C 2414.96 -2486.5056 2394.4756 -2390.326 2362.25 -2286.8125 C 2330.0226 -2184.2715 2291.9132 -2081.2325 2247.9688 -1977.7188 C 2204.0227 -1874.2015 2157.1477 -1773.6235 2107.3438 -1675.9688 C 2058.515 -1578.3112 2012.1323 -1490.405 1968.1875 -1412.2812 C 1968.187 -1506.03 1975.0464 -1602.2408 1988.7188 -1700.875 C 2002.3901 -1800.4828 2020.9369 -1897.1546 2044.375 -1990.9062 C 2067.8119 -2084.6544 2094.1712 -2173.0215 2123.4688 -2256.0312 C 2153.7415 -2339.037 2184.9915 -2411.8103 2217.2188 -2474.3125 C 2250.4211 -2536.8102 2283.1476 -2586.1148 2315.375 -2622.25 C 2348.5772 -2659.357 2379.335 -2677.9038 2407.6562 -2677.9062 z M 3058.0312 -1365.4062 C 3081.468 -1365.4051 3100.9992 -1351.2567 3116.625 -1322.9375 C 3133.2257 -1294.6161 3141.5304 -1258.4755 3141.5312 -1214.5312 C 3141.5304 -1183.2803 3129.3195 -1151.0772 3104.9062 -1117.875 C 3080.4914 -1084.671 3050.2258 -1053.882 3014.0938 -1025.5625 C 2978.9368 -997.24143 2940.3665 -973.80395 2898.375 -955.25 C 2857.3588 -937.67118 2819.2807 -928.90556 2784.125 -928.90625 C 2784.1245 -950.38992 2785.0776 -976.25708 2787.0312 -1006.5312 C 2788.9839 -1036.8039 2792.8901 -1068.0539 2798.75 -1100.2812 C 2805.5854 -1132.5069 2814.8745 -1164.2491 2826.5938 -1195.5 C 2839.2885 -1227.7256 2855.4057 -1256.0537 2874.9375 -1280.4688 C 2895.4447 -1305.8583 2920.3588 -1326.3427 2949.6562 -1341.9688 C 2979.929 -1357.5926 3016.0383 -1365.4051 3058.0312 -1365.4062 z M 7304.625 -1365.4062 L 7215.2812 -934.75 C 7211.3742 -903.49934 7202.5773 -864.43688 7188.9062 -817.5625 C 7176.2101 -770.68697 7159.1086 -725.28858 7137.625 -681.34375 C 7116.1399 -637.39804 7090.7649 -599.78089 7061.4688 -568.53125 C 7032.1712 -537.28095 6999.4447 -521.65597 6963.3125 -521.65625 C 6940.851 -521.65597 6922.3041 -527.03878 6907.6562 -537.78125 C 6893.0073 -549.49969 6881.2886 -564.1403 6872.5 -581.71875 C 6863.7105 -600.27308 6857.3433 -620.78868 6853.4375 -643.25 C 6850.5073 -666.68707 6849.062 -690.61674 6849.0625 -715.03125 C 6849.062 -757.99948 6854.4136 -803.89006 6865.1562 -852.71875 C 6876.8745 -901.54621 6892.9917 -949.89773 6913.5 -997.75 C 6934.0073 -1046.5773 6958.4291 -1092.9601 6986.75 -1136.9062 C 7015.0697 -1180.8506 7045.8275 -1219.9131 7079.0312 -1254.0938 C 7113.2102 -1288.2724 7149.3508 -1315.1239 7187.4375 -1334.6562 C 7225.5226 -1355.1629 7264.5851 -1365.4051 7304.625 -1365.4062 z M 5642.0312 -1347.8438 C 5643.007 -1348.8192 5643.9914 -1339.038 5644.9688 -1318.5312 C 5645.9445 -1298.0224 5646.4054 -1271.663 5646.4062 -1239.4375 C 5647.382 -1207.21 5648.3663 -1171.5616 5649.3438 -1132.5 C 5650.3195 -1093.4366 5651.3038 -1055.3586 5652.2812 -1018.25 C 5653.257 -982.11645 5654.7335 -948.92898 5656.6875 -918.65625 C 5658.6398 -889.35873 5661.0695 -867.85875 5664 -854.1875 C 5641.5382 -797.54632 5616.6242 -746.76512 5589.2812 -701.84375 C 5577.5617 -682.31206 5564.3977 -663.27301 5549.75 -644.71875 C 5536.0774 -627.14024 5521.4055 -611.02307 5505.7812 -596.375 C 5490.1556 -582.70278 5473.5775 -571.47623 5456 -562.6875 C 5439.3978 -553.89812 5422.2963 -549.49969 5404.7188 -549.5 C 5370.5385 -549.49969 5342.7026 -554.39031 5321.2188 -564.15625 C 5299.7339 -573.92154 5283.1245 -586.62465 5271.4062 -602.25 C 5259.6871 -617.87462 5251.4136 -635.4371 5246.5312 -654.96875 C 5242.6246 -674.49957 5240.6558 -694.0308 5240.6562 -713.5625 C 5240.6558 -762.3901 5249.4527 -817.07755 5267.0312 -877.625 C 5284.6089 -938.17118 5309.9839 -998.24143 5343.1875 -1057.8125 C 5377.3666 -1117.3819 5419.3822 -1172.5616 5469.1875 -1223.3438 C 5519.968 -1275.1005 5577.5774 -1316.5927 5642.0312 -1347.8438 z "
             inkscape:radius="116.82853"
             sodipodi:type="inkscape:offset" />
          <text
             sodipodi:linespacing="125%"
             id="text4098"
             y="-240.41992"
             x="-440.00525"
             style="font-size:500px;font-style:normal;font-variant:normal;font-weight:normal;font-stretch:normal;line-height:125%;letter-spacing:0px;word-spacing:0px;fill:#ffffff;fill-opacity:1;stroke:none;font-family:Pacifico;-inkscape-font-specification:Pacifico"
             xml:space="preserve"><tspan
               style="font-size:3000px;fill:#ffffff;fill-opacity:1"
               y="-240.41992"
               x="-440.00525"
               id="tspan4100"
               sodipodi:role="line">Blenda</tspan></text>
        </g>
      </g>
    </g>
  </g>
</svg>
