<?xml version="1.0" encoding="UTF-8" standalone="no"?>
<!-- Created with Inkscape (http://www.inkscape.org/) -->

<svg
   xmlns:osb="http://www.openswatchbook.org/uri/2009/osb"
   xmlns:dc="http://purl.org/dc/elements/1.1/"
   xmlns:cc="http://creativecommons.org/ns#"
   xmlns:rdf="http://www.w3.org/1999/02/22-rdf-syntax-ns#"
   xmlns:svg="http://www.w3.org/2000/svg"
   xmlns="http://www.w3.org/2000/svg"
   xmlns:sodipodi="http://sodipodi.sourceforge.net/DTD/sodipodi-0.dtd"
   xmlns:inkscape="http://www.inkscape.org/namespaces/inkscape"
   width="11918.894"
   height="3100.7371"
   id="svg2"
   version="1.1"
   inkscape:version="0.48.5 r10040"
   sodipodi:docname="ultimate8.svg">
  <defs
     id="defs4">
    <linearGradient
       id="linearGradient3993"
       osb:paint="solid">
      <stop
         style="stop-color:#000000;stop-opacity:1;"
         offset="0"
         id="stop3995" />
    </linearGradient>
    <linearGradient
       id="linearGradient3987"
       osb:paint="solid">
      <stop
         style="stop-color:#000000;stop-opacity:1;"
         offset="0"
         id="stop3989" />
    </linearGradient>
  </defs>
  <sodipodi:namedview
     id="base"
     pagecolor="#ffffff"
     bordercolor="#666666"
     borderopacity="1.0"
     inkscape:pageopacity="0.0"
     inkscape:pageshadow="2"
     inkscape:zoom="0.080708475"
     inkscape:cx="6039.5065"
     inkscape:cy="1298.8719"
     inkscape:document-units="px"
     inkscape:current-layer="g3834"
     showgrid="false"
     inkscape:window-width="1920"
     inkscape:window-height="1034"
     inkscape:window-x="0"
     inkscape:window-y="0"
     inkscape:window-maximized="1"
     inkscape:snap-grids="true"
     fit-margin-top="0"
     fit-margin-left="0"
     fit-margin-right="0"
     fit-margin-bottom="0"
     inkscape:snap-bbox="true"
     inkscape:object-paths="false"
     width="10000px"
     inkscape:snap-intersection-paths="false" />
  <metadata
     id="metadata7">
    <rdf:RDF>
      <cc:Work
         rdf:about="">
        <dc:format>image/svg+xml</dc:format>
        <dc:type
           rdf:resource="http://purl.org/dc/dcmitype/StillImage" />
        <dc:title></dc:title>
      </cc:Work>
    </rdf:RDF>
  </metadata>
  <g
     inkscape:label="Layer 1"
     inkscape:groupmode="layer"
     id="layer1"
     transform="translate(-97.112952,4172.0688)">
    <g
       id="g3182">
      <g
         id="g4013"
         transform="translate(3902.5478,53.679951)">
        <g
           id="g4103"
           transform="matrix(0.86218546,-0.2310219,0.2310219,0.86218546,81.995067,-1042.0963)">
          <g
             id="g3834"
             transform="translate(152.91964,61.276938)">
            <path
               transform="matrix(1.0821485,0.28996082,-0.28996082,1.0821485,-3436.2442,-4633.1699)"
               id="path3783"
               d="m 270.59375,1155.0625 c -0.15216,0.4913 -0.31714,0.9773 -0.46875,1.4687 l 699.75,-186.6562 -211.40625,791.75 582.87505,578.5312 1488.9374,-398 c 0.1128,-0.3661 0.2316,-0.7275 0.3438,-1.0937 L 2131.0312,2126.75 2531.875,639.5 c -0.1851,-0.19916 -0.377,-0.3946 -0.5625,-0.59375 L 2342.4688,1337.6562 1251.25,244.9375 c -1.78,0.40866 -3.5639,0.83638 -5.3438,1.25 l 511.375,512.6875 -1486.68745,396.1875 z"
               style="fill:#80c8b5;fill-opacity:1;fill-rule:evenodd;stroke:#332f3e;stroke-width:0;stroke-linecap:round;stroke-linejoin:miter;stroke-miterlimit:4;stroke-opacity:1;stroke-dasharray:none;stroke-dashoffset:0"
               inkscape:connector-curvature="0" />
            <path
               style="fill:#ff3100;fill-opacity:1;fill-rule:evenodd;stroke:#332f3e;stroke-width:43.83379364000000322;stroke-linecap:round;stroke-linejoin:miter;stroke-miterlimit:4;stroke-opacity:1;stroke-dashoffset:0"
               inkscape:transform-center-x="30.73137"
               inkscape:transform-center-y="-53.228127"
               d="m -1758.8329,-1727.7836 -899.0488,0 -449.5254,-778.6005 449.5254,-778.5986 899.0489,0 449.526,778.5986 z"
               id="path3007"
               inkscape:connector-curvature="0" />
            <path
               inkscape:connector-curvature="0"
               style="fill:#76d6ff;fill-opacity:1;fill-rule:evenodd;stroke:#332f3e;stroke-width:22.40645217999999872;stroke-linecap:round;stroke-linejoin:miter;stroke-miterlimit:4;stroke-opacity:1;stroke-dasharray:none;stroke-dashoffset:0"
               d="m -2153.2283,-4005.2802 863.9968,1498.8797 407.00486,-701.4035 c -243.65986,-459.7364 -719.31466,-777.5325 -1271.00166,-797.4762 z"
               id="path3011" />
            <path
               inkscape:connector-curvature="0"
               style="fill:#0bb5ff;fill-opacity:1;fill-rule:evenodd;stroke:#332f3e;stroke-width:22.40645218;stroke-linecap:round;stroke-linejoin:miter;stroke-miterlimit:4;stroke-opacity:1;stroke-dasharray:none;stroke-dashoffset:0"
               d="m -881.80174,-3206.9928 -865.03976,1493.2012 810.91936,1.8928 c 144.1598,-230.391 227.5688,-502.6906 227.5688,-794.5017 0,-253.0729 -62.7767,-491.4692 -173.4484,-700.5923 z"
               id="path3149" />
            <path
               inkscape:connector-curvature="0"
               style="fill:#76d6ff;fill-opacity:1;fill-rule:evenodd;stroke:#332f3e;stroke-width:22.40645217999999872;stroke-linecap:round;stroke-linejoin:miter;stroke-miterlimit:4;stroke-opacity:1;stroke-dasharray:none;stroke-dashoffset:0"
               d="m -936.61764,-1710.8171 -1732.12706,-1.0044 414.615,704.6485 c 15.2118,0.4561 30.454,0.7726 45.7764,0.7726 536.1522,0 1006.5143,-281.3566 1271.73566,-704.4167 z"
               id="path3174" />
            <path
               inkscape:connector-curvature="0"
               style="fill:#0bb5ff;fill-opacity:1;fill-rule:evenodd;stroke:#332f3e;stroke-width:22.40645218;stroke-linecap:round;stroke-linejoin:miter;stroke-miterlimit:4;stroke-opacity:1;stroke-dasharray:none;stroke-dashoffset:0"
               d="m -2663.2593,-1711.8215 -463.4819,-795.8537 -406.155,705.8074 c 245.5491,460.6214 724.3564,778.0669 1278.7665,794.6948 l -415.6299,-715.0821 z"
               id="path3177"
               sodipodi:nodetypes="cccccc" />
            <path
               inkscape:connector-curvature="0"
               style="fill:#76d6ff;fill-opacity:1;fill-rule:evenodd;stroke:#332f3e;stroke-width:22.40645217999999872;stroke-linecap:round;stroke-linejoin:miter;stroke-miterlimit:4;stroke-opacity:1;stroke-dasharray:none;stroke-dashoffset:0"
               d="m -3126.2776,-2506.9027 458.3441,-795.5059 -811.3444,-0.8886 c -145.0841,230.8983 -229.0755,504.0726 -229.0755,796.8967 0,254.6617 63.4812,494.4787 175.4572,704.5327 l 406.155,-705.8074 0.4636,0.7725 z"
               id="path3180" />
            <path
               transform="matrix(1.0821485,0.28996082,-0.28996082,1.0821485,-3436.2442,-4633.1699)"
               id="path3152"
               d="M 270.59375,1155.0625 1757.2812,758.875 1245.9062,246.1875 c -14.1546,3.28943 -28.2937,6.74144 -42.4374,10.53125 C 742.21613,380.31102 402.15551,730.2919 270.59375,1155.0625 z"
               style="fill:#0bb5ff;fill-opacity:1;fill-rule:evenodd;stroke:#332f3e;stroke-width:20;stroke-linecap:round;stroke-linejoin:miter;stroke-miterlimit:4;stroke-opacity:1;stroke-dasharray:none;stroke-dashoffset:0"
               inkscape:connector-curvature="0" />
          </g>
          <path
             style="fill:#332f3e;fill-opacity:1;fill-rule:evenodd;stroke:#332f3e;stroke-width:20.63089371;stroke-linecap:round;stroke-linejoin:miter;stroke-miterlimit:4;stroke-opacity:1;stroke-dashoffset:0"
             d="m -1606.6507,-4112.3588 c -5.7933,-1.5555 -11.5831,-3.0931 -17.4002,-4.5898 -137.8868,-35.4767 -282.4394,-54.3389 -431.3997,-54.339 -953.3453,10e-5 -1726.175,772.8241 -1726.1749,1726.1696 0,953.3454 772.858,1726.18394 1726.2033,1726.18394 953.3454,0 1726.17493,-772.82414 1726.17493,-1726.16954 0,-798.1009 -541.66637,-1469.6909 -1277.40343,-1667.2552 z m -57.591,207.2223 c 806.35216,216.0614 1284.87104,1044.8805 1068.80964,1851.2327 -216.0615,806.3523 -1044.88954,1284.90494 -1851.24174,1068.84344 -806.3522,-216.06134 -1284.8621,-1044.91424 -1068.8006,-1851.26644 216.0614,-806.3523 1044.8804,-1284.8712 1851.2327,-1068.8097 z"
             id="path4011"
             inkscape:connector-curvature="0" />
        </g>
        <text
           xml:space="preserve"
           style="font-size:500px;font-style:normal;font-variant:normal;font-weight:normal;font-stretch:normal;line-height:125%;letter-spacing:0px;word-spacing:0px;fill:#000000;fill-opacity:1;stroke:none;font-family:Pacifico;-inkscape-font-specification:Pacifico"
           x="-426.58054"
           y="-1350.3711"
           id="text4098"
           sodipodi:linespacing="125%"><tspan
             sodipodi:role="line"
             id="tspan4100"
             x="-426.58054"
             y="-1350.3711"
             style="font-size:3000px">Blenda</tspan></text>
      </g>
    </g>
  </g>
</svg>
